<?xml version="1.0" encoding="utf-8"?>
<!-- Generator: Adobe Illustrator 25.4.1, SVG Export Plug-In . SVG Version: 6.00 Build 0)  -->
<svg version="1.1" xmlns="http://www.w3.org/2000/svg" xmlns:xlink="http://www.w3.org/1999/xlink" x="0px" y="0px"
	 viewBox="0 0 500 500" style="enable-background:new 0 0 500 500;" xml:space="preserve">
<style type="text/css">
	.st0{fill:#263238;}
	.st1{fill:#37474F;}
	.st2{fill:#455A64;}
	.st3{fill:#FFBDA7;}
	.st4{fill:#202A44;}
	.st5{opacity:0.2;enable-background:new    ;}
	.st6{fill:#F0F0F0;}
	.st7{fill:#FAFAFA;}
	.st8{fill:#F0997A;}
	.st9{fill:#B16668;}
	.st10{fill:#F28F8F;}
	.st11{fill:#EBEBEB;}
	.st12{fill:#FFA8A7;}
	.st13{opacity:0.3;enable-background:new    ;}
	.st14{opacity:0.3;fill:#FFFFFF;enable-background:new    ;}
	.st15{opacity:0.15;enable-background:new    ;}
	.st16{opacity:0.5;fill:#FFFFFF;enable-background:new    ;}
	.st17{fill:#FFFFFF;}
	.st18{fill:none;stroke:#FFFFFF;stroke-width:0.25;stroke-miterlimit:10;}
	.st19{fill:none;}
</style>
<g id="Capa_1">
	<g id="freepik--Character--inject-33">
		<g id="freepik--character--inject-33">
			<g id="freepik--Bottom--inject-33">
				<path class="st0" d="M72.3,425.4c-1,1.9-1.4,4.1-1.3,6.3c0.7,2.8,0.9,5.8,0.7,8.7c-0.5,4.3-1.5,5.6-2,8.7
					c-0.5,2.8,0.1,5.7,1.7,8c1.8,2.9,5.7,5.2,13.4,4.9c6.3-0.2,8.8-3.4,8.9-7.1L72.3,425.4z"/>
				<path class="st1" d="M74.1,416.5c-0.2,0.8-0.3,1.6-0.4,2.4c-0.2,1.4-0.7,2.8-1,4.3c-0.1,0.4-0.2,0.7-0.3,1.1
					c-0.3,2.9-0.3,5.9,0,8.8c-0.2,3.5-0.8,6.9-1.8,10.2c-1.4,6-1.6,10.1,3.7,14.4c2.8,2.2,5.9,2.3,9.4,2.4c2.7,0.1,5.4-0.6,7.8-1.9
					c2.3-1.7,2.2-3.1,2.3-3.6c0.2-6.5-2-14-2.6-20.4c-0.2-1.7-0.2-3.5-0.1-5.2c0.2-2.1,1-4.3,1.2-6.4c0.2-0.8,0.1-1.6-0.3-2.4
					c-0.7-0.8-1.8-1.3-2.9-1.3c-2.8-0.4-5.7-0.6-8.5-0.8c-0.7-0.2-1.4,0-2,0.4c-0.4,0.6-0.7,1.3-0.7,2c-0.1,0.7-0.7,1.5-1.4,1.4
					c-0.5-0.1-0.8-0.6-0.9-1.1c0-0.5-0.3-4.2-0.3-4.7C75.5,416.1,74.4,415.9,74.1,416.5z"/>
				<path class="st0" d="M168.1,437.9c0.5,1.1,0.5,2.4,0,3.6c-0.4,1.1-5.7,4.3-13.1,4.1c-5.4-0.2-10.7-1.8-15.3-4.7
					c-2.9-1.5-6.1-2.2-9.4-2c-3.6,0-7.9-1.4-9.1-3c-0.5-1.6-0.5-3.3,0-4.9L168.1,437.9z"/>
				<path class="st1" d="M141.7,416.3c0.3,0.5,0.5,1.1,0.8,1.6c0.9,2,2.3,3.7,4,5c2.5,1.7,5.2,3.2,8,4.4c1.8,0.8,3.7,1,5.5,1.7
					c2.1,0.7,4,1.5,5.9,2.6c2.5,1.6,3.2,4.8,1.6,7.3c-0.4,0.6-0.8,1-1.3,1.4c-5.5,2.8-11.9,3.5-17.9,2c-4.3-1-9.2-5.4-14.8-5.6
					c-3.6-0.1-10.3-0.8-12.7-3.4c-0.9-3.9,0-5,0.9-8.3c0.4-1.9,0.6-3.8,0.7-5.7c0-1-0.7-3.9,1.4-4.2l0.2,2.2c0,0,0.4,0.7,2.6,1.1
					c0.7,0.1,1.3,1,1.7,1.9c0.4,0.8,0.6,1.5,1.3,1.5c0.5-0.1,0.9-0.4,1.1-0.9c0.2-0.4,0.3-0.9,0.4-1.4c0.6-1.5,1.8-2.7,3.3-3.3
					c1.3-0.4,2.6-0.7,3.9-0.8c1-0.2,1.8-0.6,2.7,0.3C141.3,415.8,141.5,416.1,141.7,416.3z"/>
				<path class="st2" d="M83.5,250.6c-2.7,26.4-2.7,39-6.1,91.7c-1.9,10.1-3.1,20.3-3.8,30.5c-0.8,12.8-2.6,51.4-2.6,51.4
					s10.3,8.5,22.3,4.6c0,0,10.8-56.7,14.6-74.4c3.6-17,7.3-38.3,7.3-38.3l1.7,26.5c0,0-0.5,10.5-0.1,26.3c0.2,8.4,4.2,54,4.2,54
					s14.5,6.6,24.2-1.9c0,0,0.7-73.8,0.9-81.5c0.2-8.7-1.3-96.1-1.3-96.1L83.5,250.6z"/>
				<path class="st0" d="M115,316.1l6.6-36c0,0,11.4-1,17.7-7.4c0,0-1.1,6.2-15.5,10l-5.8,30.1l-1.2,29.8L115,316.1z"/>
				<path class="st1" d="M71.2,417.3c4.4,3.8,10.1,5.8,15.9,5.7c0,0-9.9-1.5-15.8-8L71.2,417.3z"/>
				<path class="st1" d="M120.3,417.4c0,0,10,3.5,18.6,0.8c0,0-6.6,4.4-18.5,0.8L120.3,417.4z"/>
			</g>
			<g id="freepik--Top--inject-33">
				<g id="freepik--Arm--inject-33">
					<path class="st3" d="M138.1,173.9c4-0.5,8.4,2.7,10.6,7.4c4,8.7,12.3,27.9,18.9,39.6l25-5.5l-6.8,19.1
						c-6.4,2.2-13,4.1-19.6,5.6c-6.5,1.1-8.5,0-12.2-5.4c-3.3-4.7-16.7-28.6-16.7-28.6L138.1,173.9z"/>
					<path class="st2" d="M202.2,207.5L202.2,207.5l-1.3-1.2l0,0c-0.4-0.3-0.9-0.4-1.4-0.2l-15,3.5c-1.5,0.4-2.8,1.5-3.5,3
						l-11.9,30.4c-0.3,0.5-0.2,1.1,0.1,1.6l0,0l1.4,1.3l0,0c0.4,0.3,0.9,0.4,1.4,0.2l15-3.4c1.5-0.4,2.8-1.5,3.5-3
						c2.3-6,9.6-24.4,11.9-30.4C202.6,208.5,202.5,207.8,202.2,207.5z"/>
					<path class="st0" d="M184.1,211.6c-0.8,0.6-1.4,1.3-1.8,2.2l-11.9,30.4c-0.3,0.5-0.3,1.1,0,1.5l-1.3-1.2l0,0
						c-0.4-0.4-0.4-1.1-0.1-1.6l12-30.4c0.4-0.8,0.9-1.5,1.7-2L184.1,211.6z"/>
					<path class="st1" d="M170.4,244.1l11.9-30.4c0.7-1.4,1.9-2.5,3.5-3l15-3.5c1.4-0.3,2.1,0.5,1.6,1.8c-2.3,6-9.6,24.4-11.9,30.4
						c-0.7,1.5-1.9,2.5-3.5,3l-15,3.4C170.6,246.3,169.9,245.4,170.4,244.1z"/>
					<path class="st3" d="M200.1,214.9c3,1.2,4.9,4.3,4.5,7.5c-0.9,6.9-5.1,18.1-16.1,13.8c-5.6-2.1-6.8-9.7-1.6-11.2
						c9.1-2.6,11.5-5.8,11.5-5.8L200.1,214.9z"/>
				</g>
				<path class="st4" d="M136,171.7c6.4,1.3,10,2.4,14,10c4,7.6,15.5,34,15.5,34l-15.5,14L136,205V171.7z"/>
				<path class="st5" d="M136,171.7c6.4,1.3,10,2.4,14,10c4,7.6,15.5,34,15.5,34l-15.5,14L136,205V171.7z"/>
				<path class="st6" d="M168.7,220.5c-7,2-14.2,8.2-14.4,14.4l0.6,0.9c-0.8,0.7-2,0.7-2.8,0c-2.3-2.6-4.2-5.6-5.6-8.8
					c-0.5-1.3,1.4-5.2,6-9.1c4.6-3.9,11.5-4.2,13-3.6C168,215.8,168.7,220.5,168.7,220.5z"/>
				<path class="st4" d="M82.1,255.8c0,0-0.6,4.8,0.2,6c0.8,1.2,18.1,5.3,37.1,3.4c19-1.9,24.8-6.9,25.5-8c0.6-2.1,0.6-4.4,0-6.5
					L82.1,255.8z"/>
				<path class="st5" d="M82.1,255.8c0,0-0.6,4.8,0.2,6c0.8,1.2,18.1,5.3,37.1,3.4c19-1.9,24.8-6.9,25.5-8c0.6-2.1,0.6-4.4,0-6.5
					L82.1,255.8z"/>
				<path class="st4" d="M145.3,194.4c-2.6-18.8-2.7-23.2-16.5-23.8l-20.6-1.4c-4.4,1.1-18.1,4.4-24.1,6.2c-6,1.8-6,15.2-4.7,24.1
					c1.4,8.9,3.2,16.1,2.6,30.4c-0.2,14-3.9,21.6-0.4,25.4c12.8,8,50,5.6,63.5-2.5c2.9-1.4,0-12.2,0.2-20.9
					C145.7,217.1,146.1,200,145.3,194.4z"/>
				<path class="st7" d="M123.9,170.3c0,0,7.1,6.4,4.7,12.4c-2.3,6-12.6,7-20.5,1.3c-8-5.7-7.3-12.3-7.3-12.3l3-0.9
					c0.2,1.4,0.8,2.8,1.6,4c1.3,1.5,16.1,7.7,16.3,9.5c0,0,2.3-4.4,3-6c0.7-1.7-2.6-8.3-2.6-8.3L123.9,170.3z"/>
				<path class="st2" d="M140.7,118.9c0.1-0.6,0.2-1.2,0.3-1.7c0.2-2.1-0.6-4.2-2.2-5.7c-1.6-1.5-4-1.7-5.9-0.6
					c0.1-3.6-2.5-6.7-6-7.2c-2.4,0.2-4.7,1-6.6,2.3c-3.3,1.4-6.7,2.7-10.1,3.7c-3.5,1-6.7,2.7-9.5,5c-2.8,2.3-4.3,5.9-4.2,9.5
					c-2.8,1.5-4.5,4.3-4.5,7.5c-0.2,4.7,2,9,3.7,13.2c0,0,4.4,10.6,5.5,12.7c1.2,2.4,2.1,4.5,2.1,4.5l-0.4-7.7c3-0.1,6-0.6,8.9-1.6
					c2.9-1.1,5.6-2.4,8.3-3.9c5.3-3.1,10.2-6.6,14.8-10.6c2.6-1.8,4.6-4.4,5.7-7.3c0.7-2.7,0.1-5.6-1.7-7.7
					C139.7,121.8,140.3,120.4,140.7,118.9z"/>
				<path class="st3" d="M109.3,124.4c-0.2,4.1-2,8-5.1,10.7c0.6,3.1,0.7,6.2,0.2,9.3c-0.1,0.7-0.3,1.3-0.7,1.8c-0.4,0.6-1,1-1.6,1
					c-0.9,0-1.3-0.5-1.5-1.2c-0.4-0.9-0.9-1.8-1.4-2.6c-0.2-0.4-0.5-0.7-0.8-1c-1.7-1.7-4.5-1.8-6.2-0.1c-0.5,0.4-0.8,1-1.1,1.6
					c-2,4.4,1.6,10.4,4.9,11.2c2.1,0.6,4.4-0.2,5.7-2l0.5,19.7c3,3.2,16.2,7.6,19.5,11.3c1.5-2.5,5.8-8.8,0.1-12.4l-0.1-6.4
					c3,0.2,6.1,0,9.1-0.4c2.9-0.6,5.6-3.1,6.3-7.6c1.4-8.5,1.4-17.1,0-25.6c-1.1-5.2-3.9-8.7-5.5-9.5c0,1.1-0.9,3.9-6.5,4.7
					C119.7,127.5,114.2,126.7,109.3,124.4z"/>
				<path class="st8" d="M121.7,165.4c-4.1-0.1-8.1-1.1-11.8-2.7c-1.9-0.9-3.5-2.4-4.6-4.2c0.5,1.8,1.5,3.6,2.7,5.1
					c2.4,2.9,13.7,4.5,13.7,4.5L121.7,165.4z"/>
				<path class="st0" d="M118.2,140.7c0,1-0.8,1.8-1.8,1.9c-1,0-1.8-0.8-1.9-1.8c0-1,0.8-1.8,1.8-1.9
					C117.3,138.9,118.2,139.7,118.2,140.7L118.2,140.7z"/>
				<path class="st0" d="M116.9,134.3l-4.6,2.8c-0.8-1.3-0.4-3,0.9-3.8c1.2-0.8,2.8-0.4,3.6,0.9
					C116.8,134.2,116.8,134.3,116.9,134.3z"/>
				<path class="st9" d="M118.4,152.9l6.3,2.1c-0.5,1.7-2.3,2.7-4,2.2c0,0-0.1,0-0.1,0C118.8,156.6,117.9,154.7,118.4,152.9z"/>
				<path class="st10" d="M120.4,154.8c-0.6-0.3-1.3-0.5-2-0.3c0.2,1.8,1.8,3.1,3.6,3c0,0,0,0,0,0
					C122,156.3,121.3,155.3,120.4,154.8z"/>
				<path class="st0" d="M135.1,136l-4.9-1.9c0.5-1.3,1.9-2,3.2-1.5c0,0,0,0,0.1,0C134.9,133.1,135.6,134.6,135.1,136z"/>
				<path class="st0" d="M133.9,140c0,1-0.8,1.8-1.9,1.8c-1,0-1.8-0.8-1.8-1.9c0-1,0.8-1.8,1.8-1.8C133,138.2,133.8,139,133.9,140z"
					/>
				<polygon class="st8" points="122.2,136 124.2,149.9 131.3,148.2 				"/>
				<path class="st11" d="M121.7,184.4c-2.3-1.4-6.8-4.4-9-1.5c-2.2,2.9-3.8,6.2-5.5,5.7c-4.1-2-7.5-5.1-9.8-9.1
					c-1-2.2-1.6-4.6-1.7-7c1.2-1.7,2.2-3.4,3.2-5.1c0.9-1.8,1.6-2.7,3-2.8l0.1,4.6c1.2,2,2.8,3.8,4.6,5.2
					C110.8,177.2,118.8,177.9,121.7,184.4z"/>
				<path class="st11" d="M121.7,184.4c1.3-1.2,3.3-4.4,5.5-3.8c2.2,0.6,4.4,4.9,4.4,3.8c-0.7-3.8-2-7.5-3.9-10.9
					c-1.7-2.5-4.6-7-6-6.9l0.1,5.4c0,0,2.6,3.3,2.3,5.3C123.9,179.3,122,182.4,121.7,184.4z"/>
				<path class="st12" d="M55.4,233.2c0-4.2,3.6-20.5,8.7-37.3c4.8-15.9,12.2-18.3,20.3-19.7c3.7,8.7,4.7,18.3,3,27.5l-11.8,30.9"/>
				<path class="st3" d="M95.4,280.2c-1.8-0.6-3.4-2-4.3-3.7c1.5,0.8,3.1,1.2,4.8,1.2c2.8,0,3.5-1.5,3.5-2.4s-1.3-1.1-3.8-2.5
					c-2.1-1.1-3.6-2.7-7-4.5c-2.4-1.3-3.3-1.1-4.9-2.9c-2.5-2.7-3.3-8-5.7-15.1c-1.4-3.6-2.4-7.3-3.1-11.1l-20.2-7.4
					c-1.4,6,0.7,11.4,6.9,25.7c1.6,4.7,8.6,16.6,11.3,21.2c3.8,6.3,6.5,9.8,9.9,12.5c5.8,1.1,11.3-2.8,12.4-8.6
					C95.4,281.9,95.4,281,95.4,280.2z"/>
				<path class="st4" d="M84.1,175.5c-4.2,0.5-12.1,2.4-16.3,9s-9.1,28.1-10.9,34.8c-1.1,4.9-1.7,9.8-1.6,14.8c0,0,6.9,4.2,20.1,1.1
					c2-6.2,7.8-19.5,13.1-31.6C88.5,203.7,91.5,182.4,84.1,175.5z"/>
				<path class="st5" d="M84.1,175.5c-4.2,0.5-12.1,2.4-16.3,9s-9.1,28.1-10.9,34.8c-1.1,4.9-1.7,9.8-1.6,14.8c0,0,6.9,4.2,20.1,1.1
					c2-6.2,7.8-19.5,13.1-31.6C88.5,203.7,91.5,182.4,84.1,175.5z"/>
				<path class="st6" d="M76.4,232.3c0.8,0.5,1.1,1.3,0.7,3.4s0.2,6.8-0.8,7.7c-1,0.8-4.9,1.9-10.7,1.3c-6.4-0.6-11.5-3.7-12.3-6.7
					c-0.6-4.1-0.4-8.2,0.6-12.2c0.7-2.7,2.2-2.3,2.2-2.3l-0.4,2.6c0,0,2,4,8.7,6.2c3.6,1.3,7.5,2,11.3,2.2L76.4,232.3z"/>
			</g>
		</g>
	</g>
	<g id="freepik--speech-bubbles--inject-33">
		<g id="freepik--speech-bubble--inject-33_00000042710278650162317110000018097501637918282413_">
			<g id="freepik--speech-bubble--inject-33">
				<path class="st4" d="M273.1,177.8l4.4-8.2l-3.5-10.1v-6.2l10.7,6.2v6.2l-4.6,8c-0.1,0.1-0.2,0.2-0.3,0.3l0,0L273.1,177.8z"/>
				<path class="st13" d="M273.1,177.8l4.4-8.2l-3.5-10.1v-6.2l10.7,6.2v6.2l-4.6,8c-0.1,0.1-0.2,0.2-0.3,0.3l0,0L273.1,177.8z"/>
				<path class="st4" d="M253.8,115.6c0.1-2.3,1.3-4.4,3.2-5.6l2.6-1.5c2-1,4.4-1,6.5,0l32.7,18.9c1.9,1.2,3.1,3.3,3.2,5.6v36.3
					c-0.1,2.3-1.3,4.3-3.2,5.6l-2.6,1.5c-2,1-4.4,1-6.5,0l-11.8-6.8l-4.6,8c-0.2,0.3-0.6,0.4-0.9,0.3c-0.1-0.1-0.3-0.2-0.3-0.4
					l-4.9-14.1l-10.2-5.9c-1.9-1.2-3.1-3.3-3.2-5.6L253.8,115.6z"/>
				<path class="st13" d="M302,169.3c-0.1,2.3-1.3,4.3-3.2,5.6l-2.6,1.5c-1.8,0.9-4,1-5.9,0.3c1.5,0.6,2.7-0.3,2.7-2.1v-36.3
					c0-1.1-0.4-2.2-0.9-3.2l9.1-5.2c0.6,1,0.9,2.1,0.9,3.2V169.3z"/>
				<path class="st14" d="M253.9,114.7c0.4-1.4,1.6-1.7,3.1-0.9l32.7,18.9c1,0.6,1.7,1.4,2.3,2.4l9.1-5.2c-0.5-1-1.3-1.8-2.3-2.4
					l-32.7-18.9c-2-1-4.4-1-6.5,0L257,110C255.4,111.1,254.2,112.8,253.9,114.7z"/>
			</g>
			<path class="st7" d="M266.8,138.9c0.1,0,0.3,0.1,0.4,0.1l10.5,6c1.2,0.9,2,2.4,2,3.9v13.2c0,0.6-0.2,1-0.3,1
				c-0.1,0-0.3-0.1-0.4-0.1l-10.5-6c-1.2-0.9-2-2.4-2-3.9V140C266.5,139.3,266.7,138.9,266.8,138.9 M270.8,150.8l-0.9,1.6
				c-0.4,0.6-0.2,1.4,0.5,1.7c0,0,0,0,0,0l4.4,2.5c0.2,0.1,0.4,0.2,0.6,0.2c0.3,0,0.6-0.1,0.8-0.3c0.4-0.4,0.5-0.9,0.3-1.4l-1-2.8
				c0.4-0.6,0.7-1.3,0.6-2c0-1.8-0.9-3.5-2.4-4.5c-0.4-0.2-0.9-0.4-1.3-0.4c-1.1,0-2.3,0.9-2.3,2.8
				C270.1,149.1,270.3,150,270.8,150.8 M266.8,137.7c-0.9,0-1.6,0.9-1.6,2.3v13.2c0,2,1,3.9,2.6,5l10.5,6c0.3,0.2,0.7,0.3,1,0.3
				c0.9,0,1.6-0.9,1.6-2.3V149c0-2-1-3.9-2.6-5l-10.5-6C267.5,137.8,267.2,137.7,266.8,137.7z M275.3,155.6L271,153l1.3-2.2
				c-0.6-0.7-0.9-1.6-0.9-2.5c0-1,0.4-1.6,1.1-1.6c0.3,0,0.5,0.1,0.7,0.2c1.1,0.8,1.7,2,1.7,3.4c0,0.9-0.3,1.4-0.9,1.5L275.3,155.6
				L275.3,155.6z"/>
			<path class="st7" d="M278.2,143.1l-1.8-1.1v-5.8c-0.1-2.7-1.4-5.2-3.5-6.8c-2.2-1.4-3.3,0.5-3.3,2.9v5.8l-1.6-0.9v-5.7
				c0-3.8,2.3-5.5,5.1-3.9c3.2,2.3,5.1,5.9,5.1,9.8L278.2,143.1z"/>
		</g>
		<g id="freepik--speech-bubble--inject-33_00000080908905614863963800000004847365062082527378_">
			<g id="freepik--speech-bubble--inject-33_00000065772963553394334000000015732106651349435796_">
				<path class="st4" d="M102.4,79.3l4.4-8.2l-3.5-10.1v-6.2l10.7,6.2v6.2l-4.6,8c-0.1,0.1-0.2,0.2-0.3,0.3l0,0L102.4,79.3z"/>
				<path class="st13" d="M102.4,79.3l4.4-8.2l-3.5-10.1v-6.2l10.7,6.2v6.2l-4.6,8c-0.1,0.1-0.2,0.2-0.3,0.3l0,0L102.4,79.3z"/>
				<path class="st4" d="M83.1,17.1c0.1-2.3,1.4-4.4,3.3-5.6L89,10c2-1,4.4-1,6.5,0l32.6,18.9c1.9,1.2,3.1,3.3,3.2,5.6v36.3
					c-0.1,2.3-1.3,4.4-3.2,5.6l-2.6,1.5c-2,1-4.4,1-6.5,0L107.3,71l-4.6,8c-0.2,0.3-0.6,0.4-0.9,0.3c-0.1-0.1-0.3-0.2-0.3-0.4
					l-4.9-14.1L86.4,59c-1.9-1.2-3.1-3.3-3.2-5.6L83.1,17.1z"/>
				<path class="st13" d="M131.3,70.7c-0.1,2.3-1.3,4.4-3.2,5.6l-2.6,1.5c-1.8,0.9-4,1-5.9,0.3c1.5,0.6,2.7-0.3,2.7-2.1V39.6
					c-0.1-1.1-0.4-2.2-1-3.1l9.1-5.2c0.6,1,0.9,2.1,0.9,3.2L131.3,70.7z"/>
				<path class="st14" d="M83.2,16.2c0.4-1.4,1.6-1.7,3.1-0.9L119,34.1c0.9,0.6,1.7,1.5,2.2,2.4l9.1-5.2c-0.5-1-1.3-1.8-2.3-2.4
					L95.4,10c-2-1-4.4-1-6.5,0l-2.6,1.5C84.6,12.6,83.5,14.2,83.2,16.2z"/>
			</g>
			<path class="st7" d="M101.7,62.1c-2.9-2.1-4.7-5.5-4.8-9.1c0-2.1,0.8-3.6,2.1-4.1V33c0-2,1.2-2.9,2.7-2c1.6,1.2,2.6,3.1,2.7,5.1
				v15.7c1.3,1.9,2,4.2,2.1,6.5C106.5,62,104.3,63.6,101.7,62.1z M101.7,32.2c-1-0.6-1.8,0-1.8,1.4V50h-0.2
				c-1.2,0.3-1.9,1.5-1.9,3.5c0.1,3,1.5,5.7,4,7.5c2.2,1.3,4,0,4-3c-0.1-2-0.7-4-1.9-5.6l-0.2-0.3V35.7
				C103.5,34.3,102.8,33,101.7,32.2z"/>
			<path class="st7" d="M99.4,54.4c0-1.7,1-2.4,2.2-1.7c1.4,1,2.2,2.6,2.2,4.3c0,1.7-1,2.4-2.2,1.7C100.3,57.7,99.5,56.1,99.4,54.4z
				"/>
			<path class="st7" d="M101.7,56.1c-0.4-0.3-0.6-0.7-0.6-1.2V36.7c0-0.5,0.3-0.7,0.6-0.5c0.4,0.3,0.6,0.7,0.6,1.2v18.2
				C102.3,56.1,102.1,56.3,101.7,56.1z"/>
		</g>
		<g id="freepik--speech-bubble--inject-33_00000179618501680326631420000008516224442043675801_">
			<g id="freepik--speech-bubble--inject-33_00000136369306963511045360000003497350029236014246_">
				<path class="st4" d="M159.3,112.1l4.4-8.2l-3.5-10.1v-6.2l10.8,6.2v6.2l-4.7,8c-0.1,0.1-0.2,0.2-0.3,0.3l0,0L159.3,112.1z"/>
				<path class="st13" d="M159.3,112.1l4.4-8.2l-3.5-10.1v-6.2l10.8,6.2v6.2l-4.7,8c-0.1,0.1-0.2,0.2-0.3,0.3l0,0L159.3,112.1z"/>
				<path class="st4" d="M140,49.9c0.1-2.3,1.3-4.4,3.2-5.6l2.6-1.5c2-1,4.4-1,6.5,0L185,61.7c1.9,1.2,3.1,3.3,3.2,5.6v36.3
					c-0.1,2.3-1.3,4.3-3.2,5.6l-2.6,1.5c-2,1-4.4,1-6.5,0l-11.8-6.8l-4.6,8c-0.2,0.3-0.6,0.4-0.9,0.3c-0.1-0.1-0.3-0.2-0.3-0.4
					l-4.9-14.1l-10.2-5.9c-1.9-1.2-3.1-3.3-3.2-5.6L140,49.9z"/>
				<path class="st13" d="M188.2,103.6c-0.1,2.3-1.3,4.3-3.2,5.6l-2.6,1.5c-1.8,0.9-4,1-5.9,0.3c1.5,0.6,2.7-0.3,2.7-2.1V72.5
					c0-1.1-0.4-2.2-1-3.2l9.1-5.2c0.6,1,0.9,2.1,0.9,3.2V103.6z"/>
				<path class="st14" d="M140.1,49c0.4-1.4,1.6-1.7,3.1-0.9l32.7,18.9c0.9,0.6,1.7,1.4,2.3,2.4l9.1-5.2c-0.5-1-1.3-1.8-2.3-2.4
					l-32.7-18.9c-2-1-4.4-1-6.5,0l-2.6,1.5C141.5,45.4,140.4,47.1,140.1,49z"/>
			</g>
			<path class="st7" d="M155.8,87.7c0-2.2,1.3-3.2,2.9-2.2c1.8,1.3,2.9,3.4,2.9,5.6c0,2.2-1.3,3.2-2.9,2.2
				C156.9,92,155.8,89.9,155.8,87.7z"/>
			<path class="st7" d="M166.9,90.3c-0.4,0-0.8-0.3-1-0.7c0,0-2.5-6.2-6.6-8.5c-1.8-1.3-4.2-1.1-5.7,0.6c-0.4,0.5-1.1,0.6-1.5,0.2
				c-0.5-0.4-0.6-1-0.2-1.5c0,0,0,0,0,0c2.1-2.5,5.8-3,8.5-1.2c4.7,2.7,7.4,9.3,7.6,9.6c0.2,0.6,0,1.2-0.6,1.4c0,0,0,0,0,0
				C167.2,90.3,167,90.3,166.9,90.3z"/>
			<path class="st7" d="M174.5,83.3c-0.5,0-0.9-0.3-1-0.8c-2.4-5.6-6.5-10.2-11.7-13.2c-8.3-4.8-14.4,2.1-14.7,2.4
				c-0.4,0.5-1.1,0.5-1.5,0.1c-0.5-0.4-0.5-1.1-0.1-1.5c0,0,0,0,0,0c0,0,7.5-8.6,17.4-2.9c5.8,3.3,10.2,8.4,12.7,14.6
				c0.1,0.6-0.2,1.2-0.8,1.3L174.5,83.3z"/>
			<path class="st7" d="M170.8,86.5c-0.5,0-0.9-0.3-1-0.7c-2-4.4-5.2-8.1-9.2-10.7c-3.4-2-7.7-1.3-10.3,1.6c-0.4,0.4-1.1,0.4-1.5,0
				c-0.4-0.4-0.5-1.1-0.1-1.5c0,0,0,0,0,0c3.3-3.6,8.8-4.5,13-2c4.5,2.9,8.1,7.1,10.2,12c0.2,0.6-0.2,1.2-0.7,1.4
				C171,86.5,170.9,86.5,170.8,86.5z"/>
		</g>
		<g id="freepik--speech-bubble--inject-33_00000059269087873206304380000010675916990390951864_">
			<g id="freepik--speech-bubble--inject-33_00000109022935703718731560000016535468146211852441_">
				<path class="st4" d="M216.2,145l4.4-8.2l-3.5-10.1v-6.2l10.7,6.2v6.2l-4.6,8c-0.1,0.1-0.2,0.2-0.3,0.3l0,0L216.2,145z"/>
				<path class="st13" d="M216.2,145l4.4-8.2l-3.5-10.1v-6.2l10.7,6.2v6.2l-4.6,8c-0.1,0.1-0.2,0.2-0.3,0.3l0,0L216.2,145z"/>
				<path class="st4" d="M196.9,82.8c0.1-2.3,1.3-4.4,3.2-5.6l2.6-1.5c2-1,4.4-1,6.5,0l32.7,18.9c1.9,1.2,3.1,3.3,3.2,5.6v36.3
					c-0.1,2.3-1.3,4.3-3.2,5.6l-2.6,1.5c-2,1-4.4,1-6.5,0l-11.8-6.8l-4.6,8c-0.2,0.3-0.6,0.4-0.9,0.3c-0.1-0.1-0.3-0.2-0.3-0.4
					l-4.9-14.1l-10.2-5.9c-1.9-1.2-3.1-3.3-3.2-5.6L196.9,82.8z"/>
				<path class="st13" d="M245.1,136.4c-0.1,2.3-1.3,4.3-3.2,5.6l-2.6,1.5c-1.8,0.9-4,1-5.9,0.3c1.5,0.6,2.7-0.3,2.7-2.1v-36.3
					c0-1.1-0.4-2.2-0.9-3.2l9.1-5.2c0.6,1,0.9,2.1,0.9,3.2V136.4z"/>
				<path class="st14" d="M197,81.9c0.4-1.4,1.6-1.7,3.1-0.9l32.8,18.9c1,0.6,1.7,1.4,2.3,2.4l9.1-5.2c-0.5-1-1.3-1.8-2.3-2.4
					l-32.7-18.9c-2-1-4.4-1-6.5,0l-2.6,1.5C198.5,78.3,197.3,79.9,197,81.9z"/>
			</g>
			<path class="st7" d="M213.2,96.4c0.6,0,1.2,0.2,1.7,0.4c4.4,1.9,8.4,9.1,8.4,15c0.2,2-0.5,3.9-1.9,5.3c-1.7,1.4-2.8,3.5-3.1,5.8
				l-3.8-2.2c-0.2-3.5-1.2-6.9-2.9-10c-1.6-2.9-2.3-6.2-2.2-9.5C209.7,98.3,211.1,96.4,213.2,96.4 M213.1,95c-2.7,0-4.7,2.3-5,6.2
				c-0.1,3.5,0.7,7.1,2.4,10.2c1.7,3.1,2.6,6.5,2.7,10v0.1l6.4,3.7v-0.1c-0.2-2.6,0.8-5.1,2.7-6.9c1.8-1.6,2.7-4,2.4-6.4
				c0-6.5-4.2-14.1-9.2-16.3C214.7,95.2,213.9,95,213.1,95L213.1,95z"/>
			<polygon class="st7" points="218.5,110.6 213.4,112.7 215.7,109.5 213.9,105.3 219.5,103.6 216.8,107.1 			"/>
			<polygon class="st7" points="219.6,130.7 213.2,127 213.2,123.1 219.6,126.8 			"/>
		</g>
		<g id="freepik--speech-bubble--inject-33_00000039826690100622300460000004975509383372937381_">
			<g id="freepik--speech-bubble--inject-33_00000034799131926859756060000009113783097246408891_">
				<path class="st4" d="M330,210.7l4.4-8.2l-3.5-10.1v-6.2l10.8,6.2v6.2l-4.6,8c-0.1,0.1-0.2,0.2-0.3,0.3l0,0L330,210.7z"/>
				<path class="st13" d="M330,210.7l4.4-8.2l-3.5-10.1v-6.2l10.8,6.2v6.2l-4.6,8c-0.1,0.1-0.2,0.2-0.3,0.3l0,0L330,210.7z"/>
				<path class="st4" d="M310.7,148.5c0.1-2.3,1.3-4.3,3.2-5.6l2.6-1.5c2-1,4.4-1,6.5,0l32.7,18.9c1.9,1.2,3.1,3.3,3.2,5.6v36.3
					c-0.1,2.3-1.3,4.3-3.2,5.6l-2.6,1.5c-2,1-4.4,1-6.5,0l-11.8-6.8l-4.6,8c-0.2,0.3-0.6,0.4-0.9,0.3c-0.1-0.1-0.3-0.2-0.3-0.4
					l-4.9-14.1l-10.2-5.9c-1.9-1.2-3.1-3.3-3.2-5.6V148.5z"/>
				<path class="st13" d="M358.9,202.2c-0.1,2.3-1.3,4.3-3.2,5.6l-2.6,1.5c-1.8,0.9-4,1-5.9,0.3c1.5,0.6,2.7-0.3,2.7-2.1v-36.3
					c0-1.1-0.4-2.2-0.9-3.2l9.1-5.2c0.6,1,0.9,2.1,0.9,3.2V202.2z"/>
				<path class="st14" d="M310.8,147.6c0.4-1.4,1.6-1.7,3.1-0.9l32.7,18.9c1,0.6,1.7,1.4,2.3,2.4l9.1-5.2c-0.5-1-1.3-1.8-2.3-2.4
					L323,141.5c-2-1-4.4-1-6.5,0l-2.6,1.5C312.3,144,311.1,145.7,310.8,147.6z"/>
			</g>
			<path class="st7" d="M326.3,165.2c-0.6-0.4-1.3-0.6-2-0.6c-1.7,0-3,1.6-3,4.4c0.1,3.8,1.9,7.3,5,9.5c0.6,0.4,1.3,0.6,2,0.6
				c1.7,0,3-1.6,3-4.4C331.2,170.9,329.4,167.4,326.3,165.2z M328.3,177.6c-0.5,0-0.9-0.2-1.3-0.4c-2.6-1.9-4.2-5-4.3-8.3
				c0-1.4,0.4-2.9,1.6-2.9c0.5,0,0.9,0.2,1.3,0.4c2.6,2,4.2,5,4.3,8.3C329.9,176,329.5,177.6,328.3,177.6z"/>
			<path class="st7" d="M331.3,166.6c-0.4-0.2-0.7,0-0.7,0.6c0,0.6,0.3,1.1,0.7,1.4c0.4,0.2,0.7,0,0.7-0.6
				C332,167.4,331.7,166.9,331.3,166.6z"/>
			<path class="st7" d="M343.2,194.5c-0.7-0.4-1.4,0.8-1.5,2.8l-4-2.3c-1.5-1-2.3-2.7-2.4-4.5v-2.1l3.4,2c0.4,0.3,0.9,0.4,1.4,0.4
				c1.3,0,2.1-1.2,2.1-3.1v-13.4c0-2.7-1.3-5.1-3.5-6.7l-7.3-4.2l-10.1-5.8c-0.4-0.3-0.9-0.4-1.4-0.4c-1.2,0-2.1,1.2-2.1,3.1v13.4
				c0,2.7,1.3,5.1,3.5,6.7l7.1,4.1l2.9,1.7l0,0l2.3,1.4v2.1c0.1,3,1.5,5.9,4,7.6l4,2.3c-0.1,1.7,0.5,3.3,1.5,4.6
				c0.9,0.5,1.6-1.2,1.6-3.9S344,195,343.2,194.5z M335.3,182.9v-13.4c0-0.8-0.2-1.7-0.5-2.5l3.1,1.7c1.7,1.3,2.8,3.3,2.8,5.5v13.4
				c0,0.8-0.2,1.7-0.7,1.7c-0.2,0-0.5-0.1-0.7-0.2l-5.4-3.1C334.9,185.2,335.4,184.1,335.3,182.9L335.3,182.9z M332.3,185.1
				c-0.4,0-0.7-0.1-1-0.3l-2.9-1.7l-0.4-0.2l0,0l-6.7-3.9c-1.6-1.1-2.5-2.9-2.5-4.8v-13.4c0-1.4,0.6-2.2,1.5-2.2
				c0.4,0,0.7,0.1,1,0.3l6.7,3.9l0,0l3.3,1.9l0,0c1.6,1.1,2.5,2.9,2.5,4.8v13.4C333.9,184.3,333.2,185.1,332.3,185.1L332.3,185.1z"
				/>
		</g>
		<g id="freepik--speech-bubble--inject-33_00000103256329864546835830000012260608801213215620_">
			<g id="freepik--speech-bubble--inject-33_00000012446418168746903310000008653528087602589066_">
				<path class="st4" d="M434.6,369.1l20.8,12l-8.3,18.6c-0.2,0.4-0.4,0.7-0.8,0.9l-7.1,4.1c-0.9,0.5-2.1,0.2-2.6-0.7
					c-0.1-0.1-0.1-0.3-0.2-0.4l-9-30.4L434.6,369.1z"/>
				<path class="st15" d="M434.6,369.1l20.8,12l-8.3,18.6c-0.2,0.4-0.4,0.7-0.8,0.9l-7.1,4.1c-0.9,0.5-2.1,0.2-2.6-0.7
					c-0.1-0.1-0.1-0.3-0.2-0.4l-9-30.4L434.6,369.1z"/>
				<path class="st4" d="M448.3,385.3l-8.3,18.6c-0.4,1-1.6,1.4-2.5,0.9c-0.5-0.2-0.9-0.7-1-1.2l-9-30.4L448.3,385.3z"/>
				<path class="st4" d="M408.4,190.7l78.5,45.3c1,0.7,1.7,1.9,1.7,3.1v158.8c-0.1,1.3-0.7,2.4-1.7,3.1l-6.5,3.6
					c-1.1,0.6-2.5,0.6-3.6,0l-78.5-45.3c-1-0.7-1.7-1.9-1.7-3.1V197.4c0.1-1.3,0.7-2.4,1.7-3.1l6.5-3.6
					C405.9,190.1,407.3,190.1,408.4,190.7z"/>
				<path class="st16" d="M396.6,197c0.2-0.9,0.9-1.2,1.7-0.7l78.5,45.3c0.5,0.3,1,0.8,1.3,1.3l10-5.7c-0.3-0.5-0.7-1-1.2-1.3
					l-78.5-45.3c-1.1-0.6-2.5-0.6-3.6,0l-6.5,3.6C397.4,194.9,396.7,195.9,396.6,197z"/>
				<path class="st4" d="M478.6,403.6V244.7c-0.1-1.3-0.7-2.4-1.7-3.1l-78.5-45.3c-1-0.6-1.7-0.1-1.7,1v158.8
					c0.1,1.3,0.7,2.4,1.7,3.1l78.5,45.3C477.8,405.2,478.6,404.7,478.6,403.6z"/>
				<path class="st13" d="M476.8,404.6c1.1,0.6,2.5,0.6,3.6,0l6.5-3.6c1-0.7,1.7-1.9,1.7-3.1V239.1c0-0.7-0.2-1.3-0.6-1.8l-10,5.7
					c0.3,0.5,0.5,1.1,0.5,1.7v158.8C478.6,404.6,477.9,405.2,476.8,404.6z"/>
			</g>
			<polygon class="st7" points="458.1,288.7 437.8,253.4 428.3,259 428.3,254.1 423.5,251.3 423.5,261.8 417.6,265.4 422.1,268 
				422.1,292.8 433.5,299.4 433.5,283.5 442.1,288.5 442.1,304.4 453.5,310.9 453.5,286.1 			"/>
			<path class="st7" d="M445.5,257.8c-0.4,0-0.8-0.3-1-0.7c0,0-2.5-6.2-6.6-8.5c-1.7-1.4-4.3-1.1-5.7,0.6c-0.4,0.5-1,0.6-1.5,0.2
				c0,0,0,0,0,0c-0.5-0.3-0.6-1-0.2-1.5c0,0,0,0,0,0c2.1-2.5,5.8-3,8.5-1.2c4.7,2.7,7.4,9.3,7.6,9.6c0.2,0.6,0,1.2-0.6,1.4
				c0,0,0,0,0,0C445.7,257.8,445.6,257.8,445.5,257.8z"/>
			<path class="st7" d="M453.1,250.8c-0.5,0-0.9-0.3-1-0.8c-2.4-5.6-6.5-10.2-11.7-13.2c-8.3-4.8-14.4,2.1-14.7,2.4
				c-0.4,0.5-1.1,0.5-1.5,0.1c-0.5-0.4-0.5-1.1-0.1-1.5c0,0,0,0,0,0c0,0,7.5-8.6,17.4-2.9c5.8,3.3,10.2,8.4,12.7,14.6
				c0.1,0.6-0.2,1.2-0.8,1.3L453.1,250.8z"/>
			<path class="st7" d="M449.4,254.1c-0.5,0-0.9-0.3-1-0.8c-2-4.4-5.2-8.1-9.2-10.7c-3.4-2-7.7-1.3-10.3,1.6
				c-0.4,0.4-1.1,0.5-1.5,0.1c-0.4-0.4-0.5-1.1-0.1-1.5c0,0,0,0,0,0c3.3-3.7,8.7-4.5,13-2c4.6,2.9,8.1,7,10.2,12
				c0.2,0.6-0.2,1.2-0.7,1.4L449.4,254.1z"/>
			<g>
				<g>
					<path class="st17" d="M418.8,322.2c0.5,0,1.2,0.1,2,0.3c1,0.2,1.7,0.6,2.1,1.2c0.3,0.5,0.5,1.1,0.3,1.8c-0.2,0.7-0.5,1.2-1,1.6
						c-0.7,0.4-1.6,0.6-2.6,0.3c-0.3-0.1-0.6-0.1-0.8-0.3c-0.3,1.3-0.4,1.9-0.7,3.2c-0.4-0.1-0.6-0.1-1-0.2
						C417.7,327,418.1,325.4,418.8,322.2z M418.9,326.3c0.2,0.1,0.5,0.2,0.8,0.3c1.2,0.3,2.1-0.2,2.4-1.3c0.2-1.1-0.4-1.7-1.5-2
						c-0.5-0.1-0.8-0.1-1-0.1C419.4,324.4,419.2,325.1,418.9,326.3z"/>
					<path class="st17" d="M424.2,329.1c-0.6,0.9-0.8,1.4-1.4,2.3c-0.4-0.1-0.6-0.1-1.1-0.2c1.8-3,2.7-4.4,4.5-7.4
						c0.5,0.1,0.7,0.2,1.2,0.3c0.4,3.4,0.6,5.2,0.9,8.6c-0.4-0.1-0.7-0.1-1.1-0.2c-0.1-1.1-0.2-1.6-0.3-2.7
						C425.9,329.5,425.3,329.3,424.2,329.1z M427,328.9c-0.1-1-0.2-1.5-0.3-2.5c-0.1-0.6-0.1-1.1-0.1-1.6c0,0,0,0,0,0
						c-0.2,0.4-0.5,0.9-0.7,1.4c-0.5,0.9-0.8,1.3-1.3,2.1C425.5,328.5,426,328.7,427,328.9z"/>
					<path class="st17" d="M435.6,333.9c-0.5,0.1-1.5,0.1-2.6-0.1c-1.2-0.3-2.1-0.8-2.7-1.7c-0.5-0.8-0.7-2-0.4-3.2
						c0.5-2.4,2.6-3.8,5.3-3.2c0.9,0.2,1.6,0.6,1.9,0.8c-0.2,0.3-0.3,0.5-0.4,0.8c-0.4-0.3-0.9-0.6-1.7-0.7
						c-1.9-0.4-3.5,0.5-3.9,2.5c-0.5,2,0.5,3.5,2.4,3.9c0.7,0.2,1.2,0.2,1.4,0.1c0.2-1,0.3-1.4,0.5-2.4c-0.6-0.1-1-0.2-1.6-0.4
						c0.1-0.3,0.1-0.5,0.2-0.8c1.1,0.2,1.6,0.4,2.6,0.6C436.1,331.6,435.9,332.4,435.6,333.9z"/>
					<path class="st17" d="M444.8,332.1c-0.6,2.7-2.6,3.8-4.7,3.4c-2.1-0.5-3.2-2.4-2.7-4.9c0.6-2.5,2.5-3.8,4.6-3.4
						C444.3,327.7,445.3,329.7,444.8,332.1z M438.6,330.8c-0.4,1.7,0.2,3.4,1.8,3.8c1.6,0.4,2.9-0.9,3.3-2.7
						c0.4-1.6-0.1-3.4-1.8-3.8C440.2,327.7,439,329.1,438.6,330.8z"/>
					<path class="st17" d="M449.5,329.1c0.6,0,1.4,0.1,2.2,0.3c1.5,0.3,2.5,0.9,3,1.7c0.6,0.8,0.8,1.8,0.5,3.1
						c-0.3,1.3-0.9,2.3-1.8,2.8c-0.9,0.6-2.2,0.7-3.8,0.4c-0.7-0.2-1.3-0.3-1.9-0.5C448.4,333.8,448.8,332.3,449.5,329.1z
						 M448.9,336.4c0.2,0.1,0.6,0.2,1,0.3c2.2,0.5,3.7-0.5,4.2-2.6c0.4-1.9-0.4-3.3-2.5-3.8c-0.5-0.1-0.9-0.2-1.2-0.2
						C449.8,332.6,449.5,333.9,448.9,336.4z"/>
					<path class="st17" d="M460.6,336c-1.2-0.3-1.9-0.4-3.1-0.7c-0.3,1.2-0.4,1.7-0.6,2.9c1.4,0.3,2.1,0.5,3.5,0.8
						c-0.1,0.3-0.1,0.5-0.2,0.9c-1.8-0.4-2.7-0.6-4.5-1c0.7-3.2,1.1-4.8,1.8-8c1.7,0.4,2.6,0.6,4.3,1c-0.1,0.3-0.1,0.5-0.2,0.9
						c-1.3-0.3-2-0.4-3.3-0.7c-0.2,1-0.3,1.5-0.6,2.5c1.2,0.3,1.9,0.4,3.1,0.7C460.7,335.5,460.7,335.6,460.6,336z"/>
					<path class="st17" d="M410.5,342.3c0.4,0.4,1,0.8,1.7,0.9c1.1,0.2,1.8-0.2,2-1c0.2-0.7-0.2-1.3-1.1-1.9
						c-1.2-0.8-1.9-1.6-1.6-2.7c0.3-1.2,1.5-1.9,3.1-1.6c0.8,0.2,1.4,0.5,1.7,0.8c-0.2,0.3-0.3,0.5-0.5,0.8
						c-0.2-0.2-0.7-0.6-1.4-0.7c-1.1-0.2-1.7,0.3-1.8,0.9c-0.2,0.7,0.2,1.2,1.2,1.9c1.2,0.8,1.8,1.6,1.5,2.8
						c-0.3,1.2-1.4,2.1-3.3,1.7c-0.8-0.2-1.6-0.6-1.9-1C410.2,342.8,410.3,342.6,410.5,342.3z"/>
					<path class="st17" d="M421.2,342.1c-1.2-0.3-1.9-0.4-3.1-0.7c-0.3,1.2-0.4,1.7-0.6,2.9c1.4,0.3,2.1,0.5,3.5,0.8
						c-0.1,0.3-0.1,0.5-0.2,0.9c-1.8-0.4-2.7-0.6-4.5-1c0.7-3.2,1.1-4.8,1.8-8c1.7,0.4,2.6,0.6,4.3,1c-0.1,0.3-0.1,0.5-0.2,0.9
						c-1.3-0.3-2-0.4-3.3-0.7c-0.2,1-0.3,1.5-0.6,2.5c1.2,0.3,1.9,0.4,3.1,0.7C421.3,341.5,421.2,341.7,421.2,342.1z"/>
					<path class="st17" d="M423.8,338.3c0.5,0,1.3,0.1,2,0.3c1.1,0.2,1.8,0.6,2.2,1.2c0.3,0.4,0.4,1,0.3,1.7c-0.2,1.1-1.1,1.6-2,1.7
						c0,0,0,0,0,0c0.6,0.4,0.8,1,0.8,1.9c0,1.2,0,2,0.1,2.3c-0.4-0.1-0.6-0.1-1.1-0.2c-0.1-0.3-0.1-1-0.1-2c0-1.1-0.3-1.7-1.3-1.9
						c-0.4-0.1-0.6-0.1-1-0.2c-0.3,1.4-0.5,2.1-0.8,3.5c-0.4-0.1-0.6-0.1-1-0.2C422.7,343,423.1,341.5,423.8,338.3z M424,342.2
						c0.4,0.1,0.6,0.1,1.1,0.2c1.1,0.2,1.9-0.2,2.1-1.1c0.2-1-0.4-1.7-1.5-1.9c-0.5-0.1-0.9-0.1-1-0.1
						C424.4,340.4,424.3,341,424,342.2z"/>
					<path class="st17" d="M430.3,348c-0.3-3.4-0.5-5.1-0.8-8.6c0.4,0.1,0.7,0.1,1.1,0.2c0.1,1.7,0.2,2.5,0.4,4.2
						c0.1,1.2,0.2,2.2,0.2,3.2c0,0,0,0,0,0c0.4-0.9,1-1.8,1.6-2.8c0.9-1.5,1.3-2.2,2.2-3.6c0.4,0.1,0.7,0.1,1.1,0.2
						c-1.9,2.9-2.8,4.4-4.6,7.3C431,348.2,430.8,348.2,430.3,348z"/>
					<path class="st17" d="M438,341.4c-0.7,3.2-1.1,4.8-1.8,8c-0.4-0.1-0.6-0.1-1-0.2c0.7-3.2,1.1-4.8,1.8-8
						C437.4,341.2,437.6,341.3,438,341.4z"/>
					<path class="st17" d="M443.7,350.8c-0.4,0.1-1.2,0.1-2.2-0.1c-2.3-0.5-3.6-2.3-3-4.9c0.6-2.5,2.6-3.8,5.1-3.3
						c1,0.2,1.6,0.6,1.8,0.8c-0.2,0.3-0.3,0.5-0.4,0.8c-0.3-0.3-0.9-0.5-1.5-0.7c-1.9-0.4-3.4,0.5-3.9,2.6c-0.4,2,0.4,3.5,2.3,3.9
						c0.6,0.1,1.3,0.2,1.8,0C443.7,350.2,443.7,350.4,443.7,350.8z"/>
					<path class="st17" d="M447.7,343.6c-0.7,3.2-1.1,4.8-1.8,8c-0.4-0.1-0.6-0.1-1-0.2c0.7-3.2,1.1-4.8,1.8-8
						C447.1,343.4,447.3,343.5,447.7,343.6z"/>
					<path class="st17" d="M455.5,349.4c-0.6,2.7-2.6,3.8-4.7,3.4c-2.1-0.5-3.2-2.4-2.7-4.9c0.6-2.5,2.5-3.8,4.6-3.4
						C455,345.1,456,347,455.5,349.4z M449.2,348.1c-0.4,1.7,0.2,3.4,1.8,3.8c1.6,0.4,2.9-0.9,3.3-2.7c0.4-1.6-0.1-3.4-1.8-3.8
						C450.8,345,449.6,346.4,449.2,348.1z"/>
					<path class="st17" d="M456,352.5c0.4,0.4,1,0.8,1.7,0.9c1.1,0.2,1.8-0.2,2-1c0.2-0.7-0.2-1.3-1.1-1.9c-1.2-0.8-1.9-1.6-1.6-2.7
						c0.3-1.2,1.5-1.9,3.1-1.6c0.8,0.2,1.4,0.5,1.7,0.8c-0.2,0.3-0.3,0.5-0.5,0.8c-0.2-0.2-0.7-0.6-1.4-0.7
						c-1.1-0.2-1.7,0.3-1.8,0.9c-0.2,0.7,0.2,1.2,1.2,1.9c1.2,0.8,1.8,1.6,1.5,2.8c-0.3,1.2-1.4,2.1-3.3,1.7c-0.8-0.2-1.6-0.6-1.9-1
						C455.8,353,455.9,352.8,456,352.5z"/>
				</g>
			</g>
		</g>
	</g>
</g>
<g id="Capa_2">
	<g>
		<path class="st18" d="M141.7,199.7c0.2-0.1,0.3-0.2,0.4-0.4c0.1-0.2,0.1-0.4,0.1-0.6c-0.1-0.3-0.4-0.6-0.7-0.6
			c-0.4,0-0.7,0.2-0.8,0.5c-0.1,0.2-0.1,0.3,0,0.5c0.1,0.2,0.2,0.4,0.5,0.5c0,0.4,0,0.7,0,1.1c-0.3,0-0.5,0-0.8,0.1
			c-0.1-0.3-0.4-0.4-0.6-0.3c-0.2,0.1-0.4,0.3-0.4,0.5c0,0.2,0.2,0.4,0.4,0.5c0.1,0,0.2,0,0.3,0c0.1-0.1,0.2-0.2,0.3-0.3
			c0.1,0,0.8,0,0.8,0c0,0,0,0.1,0,0.1c0,0.4,0,0.7,0,1.1c0,0.3,0,0.6,0,0.8c0,0.4,0,0.7,0,1.1c0,0.3,0,0.6,0,0.9c0,0.4,0,0.8,0,1.2
			c0,0,0,0,0,0.1c0,0-0.1,0.1-0.1,0.1c-0.1,0.1-0.2,0.1-0.4,0.1c-0.2,0-0.4,0-0.5,0c-0.2,0-0.4-0.1-0.7-0.2c-0.1,0-0.1,0-0.2-0.1
			c-0.2-0.1-0.5-0.2-0.7-0.4c-0.1-0.1-0.2-0.1-0.3-0.2c0,0-0.1,0-0.1-0.1c0,0,0,0,0-0.1c0.1,0,0.2-0.1,0.2-0.1c0,0,0,0,0,0
			c-0.3-0.1-0.7-0.3-1-0.4c0,0,0,0,0,0c0,0,0,0,0,0c0.1,0.3,0.3,0.7,0.4,1c0-0.1,0.1-0.2,0.1-0.2c0,0,0,0,0,0
			c0.4,0.5,0.8,0.9,1.4,1.2c0.2,0.1,0.4,0.2,0.6,0.2c0.3,0.1,0.6,0.3,0.9,0.5c0.4,0.3,0.8,0.7,1.1,1.2c0,0,0,0,0,0c0,0,0,0,0,0
			c0.2-0.4,0.5-0.7,0.8-1c0.3-0.3,0.7-0.5,1.1-0.7c0.2-0.1,0.3-0.1,0.5-0.2c0.6-0.3,1.1-0.7,1.5-1.2c0,0,0,0,0,0
			c0,0.1,0.1,0.2,0.1,0.2c0.1-0.3,0.3-0.7,0.4-1c0,0-1,0.4-1,0.4c0.1,0,0.2,0.1,0.2,0.1c0,0-0.1,0.1-0.1,0.1
			c-0.1,0.1-0.2,0.1-0.3,0.2c-0.3,0.2-0.5,0.3-0.8,0.4c-0.4,0.2-0.9,0.3-1.3,0.3c-0.1,0-0.2,0-0.3,0c-0.1,0-0.1-0.1-0.2-0.1
			c0,0-0.1-0.1-0.1-0.1c0-0.2,0-0.3,0-0.5c0-0.2,0-0.3,0-0.5c0-0.2,0-0.4,0-0.6c0-0.2,0-0.3,0-0.5c0-0.3,0-0.5,0-0.8
			c0-0.2,0-0.4,0-0.6c0-0.3,0-0.6-0.1-0.9c0-0.2,0-0.5,0-0.7c0,0,0-0.1,0-0.1c0.2,0,0.4,0,0.7,0c0.1,0.3,0.4,0.4,0.6,0.3
			c0.2-0.1,0.4-0.3,0.4-0.5c0-0.2-0.2-0.4-0.4-0.5c-0.1,0-0.2,0-0.3,0c-0.1,0.1-0.2,0.2-0.3,0.3c-0.2,0-0.5-0.1-0.7-0.1
			C141.8,200.4,141.8,200,141.7,199.7z"/>
		<path class="st19" d="M141.7,199.7c0,0.3,0.1,0.7,0.1,1c0.2,0,0.5,0.1,0.7,0.1c0.1-0.1,0.2-0.2,0.3-0.3c0.1,0,0.2-0.1,0.3,0
			c0.2,0.1,0.4,0.3,0.4,0.5c0,0.2-0.2,0.4-0.4,0.5c-0.2,0.1-0.5-0.1-0.6-0.3c-0.2,0-0.4,0-0.7,0c0,0,0,0.1,0,0.1c0,0.2,0,0.5,0,0.7
			c0,0.3,0,0.6,0.1,0.9c0,0.2,0,0.4,0,0.6c0,0.3,0,0.5,0,0.8c0,0.2,0,0.3,0,0.5c0,0.2,0,0.4,0,0.6c0,0.2,0,0.3,0,0.5
			c0,0.2,0,0.3,0,0.5c0,0,0,0.1,0.1,0.1c0.1,0.1,0.1,0.1,0.2,0.1c0.1,0,0.2,0,0.3,0c0.5,0,0.9-0.1,1.3-0.3c0.3-0.1,0.6-0.3,0.8-0.4
			c0.1-0.1,0.2-0.1,0.3-0.2c0,0,0.1-0.1,0.1-0.1c-0.1,0-0.2-0.1-0.2-0.1c0,0,1-0.4,1-0.4c-0.1,0.3-0.3,0.7-0.4,1
			c0-0.1-0.1-0.2-0.1-0.2c0,0,0,0,0,0c-0.4,0.5-0.9,0.9-1.5,1.2c-0.2,0.1-0.3,0.2-0.5,0.2c-0.4,0.1-0.8,0.4-1.1,0.7
			c-0.3,0.3-0.6,0.6-0.8,1c0,0,0,0,0,0c0,0,0,0,0,0c-0.3-0.5-0.7-0.9-1.1-1.2c-0.3-0.2-0.6-0.4-0.9-0.5c-0.2-0.1-0.4-0.1-0.6-0.2
			c-0.5-0.3-1-0.7-1.4-1.2c0,0,0,0,0,0c0,0.1-0.1,0.2-0.1,0.2c-0.1-0.3-0.3-0.7-0.4-1c0,0,0,0,0,0c0,0,0,0,0,0
			c0.3,0.1,0.7,0.3,1,0.4c0,0,0,0,0,0c-0.1,0-0.2,0.1-0.2,0.1c0,0,0,0,0,0.1c0,0,0.1,0.1,0.1,0.1c0.1,0.1,0.2,0.2,0.3,0.2
			c0.2,0.1,0.5,0.3,0.7,0.4c0.1,0,0.1,0,0.2,0.1c0.2,0.1,0.4,0.1,0.7,0.2c0.2,0,0.4,0,0.5,0c0.1,0,0.2,0,0.4-0.1
			c0.1,0,0.1-0.1,0.1-0.1c0,0,0,0,0-0.1c0-0.4,0-0.8,0-1.2c0-0.3,0-0.6,0-0.9c0-0.4,0-0.7,0-1.1c0-0.3,0-0.6,0-0.8
			c0-0.4,0-0.7,0-1.1c0,0,0-0.1,0-0.1c0,0-0.7,0-0.8,0c-0.1,0.1-0.2,0.2-0.3,0.3c-0.1,0-0.2,0.1-0.3,0c-0.2-0.1-0.4-0.3-0.4-0.5
			c0-0.2,0.2-0.4,0.4-0.5c0.2-0.1,0.5,0,0.6,0.3c0.3,0,0.5,0,0.8-0.1c0-0.4,0-0.7,0-1.1c-0.2-0.1-0.4-0.3-0.5-0.5
			c-0.1-0.2,0-0.3,0-0.5c0.1-0.3,0.4-0.6,0.8-0.5c0.3,0,0.6,0.3,0.7,0.6c0.1,0.2,0,0.4-0.1,0.6C142.1,199.5,141.9,199.6,141.7,199.7
			z M142.8,201c0,0.1,0.1,0.2,0.2,0.2c0.1,0,0.2-0.1,0.2-0.2c0-0.1-0.1-0.2-0.2-0.2C142.9,200.8,142.8,200.8,142.8,201z M140,201
			c0-0.1-0.1-0.2-0.2-0.2c-0.1,0-0.2,0.1-0.2,0.2c0,0.1,0.1,0.2,0.2,0.2C139.9,201.1,140,201.1,140,201z"/>
		<path class="st18" d="M141.6,199.3C141.6,199.3,141.6,199.3,141.6,199.3c-0.1-0.1-0.1-0.1-0.2-0.1c0,0-0.1,0-0.1,0
			c0,0,0,0-0.1,0.1c0,0,0,0,0,0c-0.1-0.1-0.3-0.2-0.3-0.5c0-0.2,0.2-0.4,0.5-0.4c0.2,0,0.4,0.2,0.5,0.4
			C141.9,199,141.8,199.3,141.6,199.3z"/>
		<path class="st17" d="M142.8,201c0-0.1,0.1-0.2,0.2-0.2c0.1,0,0.2,0.1,0.2,0.2c0,0.1-0.1,0.2-0.2,0.2
			C142.9,201.1,142.8,201.1,142.8,201z"/>
		<path class="st17" d="M140,201c0,0.1-0.1,0.2-0.2,0.2c-0.1,0-0.2-0.1-0.2-0.2c0-0.1,0.1-0.2,0.2-0.2
			C139.9,200.8,140,200.9,140,201z"/>
	</g>
</g>
</svg>
