<?xml version="1.0" encoding="utf-8"?>
<!-- Generator: Adobe Illustrator 25.4.1, SVG Export Plug-In . SVG Version: 6.00 Build 0)  -->
<svg version="1.1" id="Capa_1" xmlns="http://www.w3.org/2000/svg" xmlns:xlink="http://www.w3.org/1999/xlink" x="0px" y="0px"
	 viewBox="0 0 500 500" style="enable-background:new 0 0 500 500;" xml:space="preserve">
<style type="text/css">
	.st0{fill:#EBEBEB;}
	.st1{fill:#FFFFFF;}
	.st2{fill:#E0E0E0;}
	.st3{fill:#FAFAFA;}
	.st4{fill:#F5F5F5;}
	.st5{fill:#455A64;}
	.st6{fill:#C10016;}
	.st7{fill:#263238;}
	.st8{fill:#A36957;}
	.st9{fill:#7C3B29;}
	.st10{opacity:0.3;}
	.st11{fill:none;stroke:#FFFFFF;stroke-width:0.25;stroke-miterlimit:10;}
	.st12{fill:none;}
</style>
<g id="freepik--background-complete--inject-4">
	<path class="st0" d="M39.8,279.9L89,269.3c3.4-0.7,6.8,1.5,7.6,4.9l10.5,49.2c0.7,3.4-1.5,6.8-4.9,7.6L53,341.5
		c-3.4,0.7-6.8-1.5-7.6-4.9l-10.5-49.2C34.1,284,36.3,280.6,39.8,279.9z"/>
	<path class="st1" d="M93.3,311.4c0-0.5-0.2-0.9-0.4-1.4l-0.2-0.4c-1.1-2-2.8-3.5-4.8-4.5c-1.8-1-3.8-1.7-5.8-2.2l-0.2-0.1
		c-0.2,0-0.3,0-0.4,0.2l-3.9,6.7l-14.3-9.2l3.9-7.2c0-0.1,0-0.2,0-0.3c0-0.1-0.1-0.2-0.2-0.2l-3.3-1.6c-0.5-0.2-0.9-0.4-1.1-0.5
		c-0.1-0.1-0.2-0.1-0.3-0.2l-0.2-0.1c-0.2-0.1-0.5-0.2-0.7-0.3c-1.3-0.5-2.6-0.7-3.9-0.6c-2.1,0.1-4.2,0.9-5.9,2.2
		c-2.3,1.8-3.6,4.6-3.5,7.5c0.1,1.7,0.8,3.4,2.1,4.5c0.6,0.6,1.3,1.1,2.1,1.5l21.8,14c0.3,0.2,0.5,0.3,0.8,0.5
		c0.6,0.4,1.3,0.8,2,1.2c1,0.5,2.1,0.9,3.3,1.1c0.8,0.2,1.6,0.2,2.4,0.2c1.6,0,3.2-0.3,4.6-1c2.2-1,4-2.7,5.1-4.8
		c0.3-0.5,0.5-1.1,0.7-1.6l0.1-0.3c0.2-0.5,0.3-1,0.3-1.5l0.1-0.9L93.3,311.4z M65.9,293.4l-4.1,7.2c-0.1,0.2-0.1,0.4,0.1,0.5
		l15.8,10.4c0.1,0.1,0.2,0.1,0.3,0c0.1,0,0.2-0.1,0.2-0.2l4.1-6.9c1.7,0.5,3.3,1.1,4.9,2c1.7,0.9,3.2,2.2,4.2,3.9
		c0.1,0.1,0.1,0.3,0.2,0.4c0.1,0.3,0.2,0.6,0.3,0.9l0.1,0.6l-0.1,0.8c0,0.4-0.1,0.7-0.2,1.1l-0.1,0.3c-0.1,0.5-0.3,0.9-0.6,1.4
		c-1,1.8-2.5,3.3-4.4,4.1c-1.9,0.8-4,1.1-6.1,0.6c-1-0.2-2-0.5-2.9-1c-0.6-0.3-1.3-0.7-1.9-1.1l-0.8-0.5L53,304.1
		c-0.7-0.4-1.3-0.9-1.9-1.4c-1-0.9-1.7-2.2-1.8-3.6c0-2.5,1.1-4.9,3-6.5c1.5-1.2,3.3-1.9,5.2-2.1h0.7c1.3,0,2.6,0.2,3.8,0.8l0.3,0.1
		c0.2,0.1,0.5,0.3,1,0.6L65.9,293.4z"/>
	<path class="st1" d="M72.7,295.5c1.5-0.1,2.9-0.3,4.4-0.7c0.8,4.2,1.2,4.7,1.5,4.7h0.1l0,0c0.3-0.1,0.6-0.1-0.3-4.9
		c4.9-1.1,4.8-1.3,4.8-1.7l0,0c0-0.1-0.1-0.2-0.2-0.3c-0.3-0.2-1.9,0-4.9,0.6c-0.6-2.9-1-4.4-1.3-4.6c-0.2-0.1-0.4-0.1-0.6,0.1
		c-0.2,0.3,0,1.9,0.5,4.8c-4.5,1-4.7,1.3-4.7,1.4c0,0.1,0,0.2,0,0.3C72.1,295.4,72.1,295.5,72.7,295.5z"/>
	<rect x="352.4" y="60.1" class="st2" width="109.2" height="180.8"/>
	<rect x="348.7" y="60.1" class="st0" width="109.2" height="180.8"/>
	<rect x="353.4" y="63.7" class="st3" width="99.9" height="173.4"/>
	<rect x="372.4" y="86.3" class="st0" width="61.4" height="128.4"/>
	<path class="st2" d="M372.4,169.2c-0.1-12,10.6-23.7,22.5-25.4c5.7-0.8,11.7,0.3,17-1.8c9.5-3.9,12.5-16.4,22-20.1l0.4,92.8h-61.9
		V169.2z"/>
	<rect x="237.2" y="59.7" class="st2" width="84" height="87.6"/>
	<rect x="231.5" y="59.7" class="st3" width="84" height="87.6"/>
	<path class="st2" d="M315.5,147.3h-84.1V59.7h84.1V147.3z M231.5,147.3h84V59.8h-84V147.3z"/>
	<rect x="242.8" y="71.5" class="st3" width="61.4" height="64"/>
	<path class="st2" d="M242.8,136c-0.4,0.6-0.9,1.2-1.5,1.8c-1,1-2.4,2.4-3.9,4s-3,2.9-4,3.8c-0.5,0.6-1.1,1.1-1.8,1.5
		c0.4-0.6,0.9-1.2,1.5-1.8c1-1,2.4-2.4,3.9-4s3-2.9,4-3.9C241.5,136.9,242.1,136.4,242.8,136z"/>
	<path class="st2" d="M304.2,135.8c0.6,0.4,1.2,0.9,1.8,1.5c1,1,2.4,2.4,4,3.9s2.9,3,3.8,4c0.6,0.5,1.1,1.1,1.5,1.8
		c-0.6-0.4-1.2-0.9-1.8-1.5c-1-1-2.4-2.4-4-3.9s-2.9-3-3.9-4C305.1,137,304.6,136.4,304.2,135.8z"/>
	<path class="st2" d="M304,71.7c0.4-0.6,0.9-1.2,1.5-1.8c1-1,2.4-2.4,3.9-4s3-2.9,4-3.8c0.5-0.6,1.1-1.1,1.8-1.5
		c-0.4,0.6-0.9,1.2-1.5,1.8c-1,1-2.4,2.4-3.9,4s-3,2.9-4,3.8C305.2,70.8,304.7,71.3,304,71.7z"/>
	<path class="st2" d="M242.6,71.8c-0.6-0.4-1.2-1-1.8-1.5c-1-1-2.4-2.4-4-3.9s-2.9-3-3.8-4c-0.6-0.5-1.1-1.1-1.5-1.8
		c0.6,0.4,1.2,0.9,1.8,1.5c1,1,2.4,2.4,4,3.9s2.9,3,3.8,4C241.7,70.6,242.2,71.2,242.6,71.8z"/>
	<path class="st2" d="M304,135.5c0,0,0-0.1,0-0.3s0-0.5,0-0.9c0-0.8,0-2,0-3.5c0-3,0-7.4-0.1-13c0-11.2-0.1-27.2-0.1-46.3l0.2,0.2
		h-61.2l0,0l0.3-0.3c0,23.5,0,45.5,0,64l-0.2-0.2l44.3,0.1l12.5,0.1h3.3L304,135.5c-0.1,0-0.2,0-0.3-0.1h-0.8h-3.3l-12.4,0.1
		l-44.5,0.1h-0.2v-0.2c0-18.5,0-40.5,0-64v-0.3h0.3H304h0.2v0.2c0,19.2-0.1,35.2-0.1,46.5c0,5.6,0,10-0.1,13c0,1.5,0,2.6,0,3.4
		c0,0.4,0,0.7,0,0.9C304.1,135.3,304.1,135.4,304,135.5z"/>
	<rect x="263.2" y="93.3" class="st0" width="20.5" height="20.5"/>
	<polygon class="st2" points="459.7,428.5 456.5,461.7 439.3,461.7 435.9,428.5 	"/>
	<rect x="433.8" y="426" class="st0" width="28.4" height="2.4"/>
	<polygon class="st0" points="456.9,421.8 459.7,426.6 437.1,426.6 438.2,421.8 	"/>
	<polygon class="st4" points="458.6,439.7 457.4,451.5 438.2,451.5 437,439.7 	"/>
	<path class="st3" d="M445.3,448.9c0-1,0.3-2.1,0.9-2.9c0.5-0.7,1.1-1.4,1.5-2c0.4-0.6,0.8-1.2,1-1.9c0.1-0.3,0.1-0.5,0.1-0.8
		l0.1,0.1c0.7,0.5,1.1,1.2,1.3,2c0.1,0.8,0.1,1.6-0.1,2.4c-0.2,0.9-0.6,1.8-1.2,2.5c-0.8,0.8-1.9,1.1-3,0.9
		C445.7,449.1,445.5,449,445.3,448.9z"/>
	<path class="st3" d="M443.9,446.3c0-1.1,0.2-2.1,0.6-3.1c0.4-1,1.2-1.8,2.3-2.1c0.5-0.2,1.1-0.1,1.6,0.1c0,0.3-0.1,0.6-0.2,0.8
		c-0.2,0.6-0.6,1.2-1,1.8c-0.5,0.6-1.1,1.3-1.6,2c-0.5,0.7-0.8,1.6-0.9,2.5c0,0.2,0,0.4,0,0.5c-0.3-0.2-0.5-0.4-0.7-0.7
		C443.9,447.5,443.8,446.9,443.9,446.3z"/>
	<path class="st4" d="M304.7,410.4c15.5-15.5,15.4-39.2,11.1-59.8c-0.7-3.4-1-7.1-3.2-9.9s-6.4-4.1-9.2-2.1
		c-2.3,1.7-2.9,4.8-3.9,7.5c-1.3,3.6-3.7,6.8-6.7,9.2c-2,1.5-4.6,2.7-7,1.9c-3.3-1.1-4.4-5.2-4.9-8.6c-1.1-6.4-2.2-12.8-3.3-19.2
		c-0.6-3.4-1.2-6.9-2.9-10s-4.5-5.7-8-6s-7.1,2.3-7.2,5.7c0.1,1.4,0.3,2.9,0.7,4.3c0.2,1.4-0.2,3.1-1.5,3.8s-2.8-0.1-4.1-0.9
		c-4.1-2.8-7.4-6.9-10.4-10.9s-6-8.2-9.9-11.4s-8.9-5.4-13.8-4.8s-9.6,4.6-10,9.6s3.3,9.5,7.1,12.8c5.6,5,11.9,9.2,18.6,12.4
		c1.3,0.4,2.4,1.3,3.2,2.4c1.2,2.2-0.6,4.8-2.7,6c-2.4,1.3-5.2,1.5-7.8,2.3s-5.3,2.5-5.9,5.2c-0.8,3.8,2.8,6.9,6.1,8.8
		c6.6,3.8,13.9,6.4,21.4,7.8c2.7,0.5,5.5,0.8,7.8,2.2s4.1,4.3,3.3,6.9s-3.8,4-6.5,4s-5.4-1-8-1.5c-5-0.9-11.1,0.5-13.4,5.1
		c-1.5,3-1,6.8,0.6,9.8c1.7,2.9,4,5.5,6.7,7.5c9.1,7.6,20,12.7,31.7,14.8C284.3,417.2,294.6,416.4,304.7,410.4"/>
	<path class="st2" d="M297.1,398.4c-5.4-10.6-11.5-21-18.1-30.9l-5.1-7.9c-1.7-2.6-3.4-5.1-5.2-7.5c-3.5-4.6-7.2-9-11.1-13.1
		c-3.8-4-7.4-7.7-10.9-11.1s-6.8-6.5-10-9.2c-4.9-4.3-10.2-8.2-15.7-11.7c-2-1.2-3.5-2.1-4.6-2.7l-1.2-0.7c-0.1-0.1-0.3-0.1-0.4-0.2
		c0.1,0.1,0.3,0.2,0.4,0.3l1.2,0.7c1,0.6,2.6,1.6,4.5,2.8c5.5,3.5,10.7,7.5,15.6,11.8c3.1,2.7,6.4,5.9,9.9,9.3s7.1,7.1,10.9,11.1
		c3.9,4.2,7.6,8.6,11.1,13.1c1.8,2.4,3.5,4.9,5.2,7.5l5.1,7.9c6.6,9.9,12.6,20.2,18.1,30.8"/>
	<path class="st2" d="M268.5,352.2c0.1-0.5,0.1-1,0.1-1.5c0-1,0-2.4-0.1-4.1c-0.1-3.5-0.5-8.3-0.9-13.6s-0.7-10.1-0.7-13.6
		c0-1.8,0-3.2,0-4.1c0-0.5,0-1-0.1-1.5c-0.1,0.5-0.2,1-0.2,1.5c-0.1,1-0.1,2.4-0.1,4.1c0,3.5,0.1,8.4,0.5,13.7s0.8,10,1,13.6
		c0.1,1.6,0.2,3,0.3,4.1C268.3,351.2,268.4,351.7,268.5,352.2z"/>
	<path class="st2" d="M222.9,351.8c0.6,0,1.2,0,1.8-0.1c1.1-0.1,2.8-0.3,4.9-0.4c4.1-0.3,9.8-0.5,16.1-0.4s12,0.4,16.1,0.7
		c2.1,0.2,3.7,0.3,4.9,0.4c0.6,0.1,1.2,0.1,1.8,0.1c-0.6-0.2-1.2-0.3-1.8-0.4c-1.1-0.2-2.8-0.4-4.9-0.6c-4.1-0.5-9.8-0.9-16.1-0.9
		c-5.4-0.1-10.8,0.1-16.1,0.6c-2.1,0.2-3.7,0.4-4.9,0.6C224.1,351.5,223.5,351.6,222.9,351.8z"/>
	<path class="st2" d="M296.4,397.7c0.1-0.2,0.2-0.4,0.2-0.6c0.1-0.5,0.3-1,0.5-1.7c0.4-1.5,0.9-3.7,1.5-6.4c1.2-5.4,2.7-13,4.2-21.3
		s2.9-15.9,4-21.4c0.5-2.6,1-4.8,1.3-6.5c0.1-0.7,0.3-1.3,0.4-1.8c0.1-0.2,0.1-0.4,0.1-0.6c-0.1,0.2-0.2,0.4-0.2,0.6l-0.5,1.7
		c-0.4,1.5-0.9,3.7-1.5,6.4c-1.2,5.4-2.7,13-4.2,21.3s-2.9,15.9-4,21.4c-0.5,2.6-1,4.8-1.3,6.5c-0.1,0.7-0.3,1.3-0.4,1.8
		C296.4,397.3,296.4,397.5,296.4,397.7z"/>
	<path class="st2" d="M234.5,389.3c0.2,0.1,0.4,0.1,0.6,0.1l1.8,0.3l6.6,0.9c5.6,0.8,13.3,1.9,21.9,3.2s16.3,2.4,21.9,3
		c2.8,0.3,5.1,0.6,6.7,0.7l1.8,0.1c0.2,0,0.4,0,0.6,0c-0.2-0.1-0.4-0.1-0.6-0.1l-1.8-0.3l-6.6-0.9c-5.6-0.8-13.3-1.9-21.9-3.2
		s-16.3-2.4-21.9-3c-2.8-0.3-5.1-0.6-6.7-0.7l-1.8-0.1C234.9,389.2,234.7,389.2,234.5,389.3z"/>
	
		<rect x="43.8" y="44.5" transform="matrix(2.268920e-03 -1 1 2.268920e-03 0.6376 160.4554)" class="st2" width="73.9" height="70.9"/>
	
		<rect x="39" y="44.5" transform="matrix(2.268920e-03 -1 1 2.268920e-03 -4.1306 155.6346)" class="st5" width="73.9" height="70.9"/>
	<path class="st4" d="M111.3,116.9l-70.9-0.2l0.2-73.9l70.9,0.2L111.3,116.9z"/>
	
		<rect x="48.9" y="54" transform="matrix(2.268920e-03 -1 1 2.268920e-03 -4.1256 155.6396)" class="st1" width="54" height="51.8"/>
	<path class="st2" d="M50,107.2c-0.4,0.5-0.8,1-1.3,1.5c-0.8,0.9-2,2-3.3,3.3s-2.5,2.4-3.4,3.2c-0.4,0.5-0.9,0.9-1.5,1.2
		c0.4-0.5,0.8-1,1.2-1.5c0.8-0.9,2-2,3.3-3.3s2.5-2.4,3.4-3.2C48.9,108,49.4,107.5,50,107.2z"/>
	<path class="st2" d="M101.8,107.2c0.5,0.4,1,0.8,1.5,1.3c0.9,0.8,2,2,3.3,3.3s2.4,2.5,3.2,3.4c0.5,0.5,0.9,1,1.2,1.5
		c-0.5-0.4-1-0.8-1.5-1.3c-0.9-0.8-2-2-3.3-3.3s-2.4-2.5-3.2-3.4C102.5,108.2,102.1,107.7,101.8,107.2z"/>
	<path class="st2" d="M101.8,53.1c0.4-0.5,0.8-1,1.2-1.5c0.8-0.9,2-2,3.3-3.3s2.5-2.4,3.4-3.2c0.4-0.5,1-0.9,1.5-1.2
		c-0.3,0.5-0.7,1-1.2,1.5c-0.8,0.9-2,2.1-3.3,3.3s-2.5,2.4-3.4,3.2C102.8,52.3,102.3,52.7,101.8,53.1z"/>
	<path class="st2" d="M50,53.1c-0.5-0.4-1-0.8-1.5-1.3c-0.9-0.8-2-2-3.3-3.3s-2.5-2.5-3.3-3.4c-0.5-0.4-0.9-1-1.2-1.5
		c0.5,0.4,1,0.8,1.5,1.3c0.9,0.8,2,2,3.3,3.3s2.4,2.5,3.2,3.4C49.2,52.1,49.6,52.6,50,53.1z"/>
	<path class="st2" d="M101.6,107c0-0.1,0-0.2,0-0.3c0-0.2,0-0.4,0-0.8c0-0.7,0-1.7,0-2.9c0-2.6,0-6.3,0-11c0-9.5,0-22.9,0-39.1
		l0.2,0.2L50.1,53l0,0l0.2-0.2c-0.1,19.8-0.1,38.4-0.2,54l-0.2-0.2l37.4,0.2l10.5,0.1h2.8l0,0L98,107H87.5H50h-0.2v-0.2
		c0-15.6,0.1-34.2,0.1-54v-0.2h0.2l51.7,0.1h0.2v0.2c-0.1,16.2-0.2,29.7-0.2,39.2c0,4.7-0.1,8.4-0.1,11c0,1.3,0,2.2,0,2.9
		c0,0.3,0,0.6,0,0.7S101.6,107,101.6,107z"/>
	<path class="st4" d="M66.3,94.5c-3.9-4.2-4.1-10.6-0.5-15.1c1.4-1.6,3.4-2.8,4.7-4.6c2.9-3.8,2.9-9.7,6.9-12.2
		c2.9-1.8,7.1-0.8,9.3,1.9c2,2.9,2.4,6.6,0.9,9.8c-1,2.3-2.8,4.3-3.6,6.8S83.8,86.4,83,89c-1,3-4.1,4.9-7.1,6
		C72.8,96,69.4,95.9,66.3,94.5"/>
	<path class="st2" d="M81,69.7c-0.1,0.5-0.3,1-0.5,1.4c-0.3,0.9-0.9,2.2-1.6,3.8c-1.9,4.1-4,8.1-6.4,12c-2.4,3.8-5.1,7.5-7.9,11
		c-1.1,1.3-2,2.4-2.7,3.1c-0.3,0.4-0.7,0.7-1.1,1.1c0.3-0.4,0.6-0.8,0.9-1.2c0.6-0.8,1.5-1.8,2.6-3.2c2.8-3.5,5.3-7.2,7.7-11.1
		c2.4-3.8,4.6-7.8,6.5-11.9c0.8-1.6,1.3-2.8,1.8-3.7C80.5,70.5,80.7,70.1,81,69.7z"/>
	<path class="st2" d="M70.2,79c0.2,0.9,0.3,1.8,0.4,2.7c0.2,1.7,0.4,4.1,0.7,6.8L71,88.3l1.1-0.7c2.6-1.5,5-2.8,6.7-3.8
		c0.9-0.6,1.9-1,2.8-1.4c-0.8,0.6-1.7,1.2-2.6,1.7c-1.7,1-4,2.4-6.6,3.9l-1.1,0.7L71,88.9v-0.4c-0.2-2.7-0.4-5.1-0.6-6.8
		C70.3,80.8,70.2,79.9,70.2,79z"/>
	<path class="st2" d="M83.9,75c-0.5,0.4-1.1,0.7-1.8,1c-1.1,0.6-2.6,1.3-4.4,2l-0.5,0.2l-0.3,0.1v-0.3c-0.3-1.7-0.5-3.3-0.6-4.4
		c-0.1-0.6-0.2-1.2-0.1-1.8c0.2,0.6,0.4,1.2,0.4,1.8c0.2,1.1,0.5,2.6,0.8,4.4L77,77.9l0.5-0.2c1.7-0.8,3.3-1.5,4.4-1.9
		C82.6,75.4,83.2,75.2,83.9,75z"/>
</g>
<g id="freepik--Plant--inject-4">
	<path class="st6" d="M145.1,373.2c4.7-2.4,10.2-2.8,15.5-1.9c2.8,0.5,5.7,1.3,7.6,3.4s2.3,5.8,0.1,7.6c-1.4,1-3.1,1.4-4.8,1.2
		c-4.1,0-8.6-0.8-11.9,1.7c-1.9,1.4-3.1,3.7-5.3,4.4c-2.3,0.5-4.7-0.5-5.8-2.6c-1.1-2-1.3-4.4-0.7-6.6
		C140.3,377.4,142.3,374.7,145.1,373.2z"/>
	<path class="st6" d="M134.3,352.4c2.9,4.1,8.5,2.8,11.1,0.2s3.7-6.1,4.7-9.6c2.3-7.9,4.6-16.2,2.9-24.3c-0.4-2.5-1.5-4.7-3.1-6.6
		c-1.7-1.9-4.2-2.7-6.7-2.2c-2.8,0.7-4.6,3.5-5.9,6.1c-3.7,7.8-5.7,16.3-5.7,24.9C131.6,344.9,132.1,349.1,134.3,352.4"/>
	<path class="st6" d="M126.4,358.3c3.1-3.7,3.7-9.1,2.3-13.8s-4.5-8.6-8.2-11.8c-4.3-3.8-9.2-6.7-14.6-8.6c-2.1-0.8-4.3-1.2-6.6-1.1
		c-2.3,0.1-4.3,1.4-5.5,3.3c-1.5,2.9-0.1,6.5,1.5,9.4c2.8,5.1,6,10,9.6,14.6c2.9,3.7,6.2,7.4,10.6,9s8.9,1.5,11.3-1.6"/>
	<path class="st7" d="M134.1,414.5c0.2-0.6,0.2-1.2,0.3-1.9c0.1-1.4,0.3-3.1,0.5-5.1c0.2-2.5,0.6-5,1.1-7.5c0.7-3,1.6-6,2.7-8.8
		c1.1-2.9,2.6-5.6,4.5-8c1.5-2,3.5-3.6,5.7-4.7c1.5-0.8,3.1-1.3,4.8-1.5c0.6,0,1.3-0.1,1.9-0.3c-0.6-0.1-1.3-0.1-1.9,0
		c-1.7,0.1-3.4,0.6-5,1.3c-2.3,1.1-4.4,2.7-6,4.8c-2,2.5-3.5,5.2-4.7,8.1c-1.2,2.9-2.1,5.9-2.7,9c-0.5,2.5-0.8,5-1,7.6
		c-0.2,2.2-0.2,3.9-0.2,5.1C134,413.2,134.1,413.9,134.1,414.5z"/>
	<path class="st7" d="M134.5,410.5c0-0.3,0-0.6,0-0.9c0-0.6,0-1.5,0-2.5c0-2.1,0-5.3,0.1-9.1c0.2-7.7,0.9-16,2.1-27.6
		c1.2-11,2.8-23.8,4.6-32c0.4-1.9,0.7-3.6,1.1-5.1s0.6-2.8,0.9-3.8s0.4-1.8,0.6-2.4c0.1-0.3,0.1-0.6,0.1-0.9
		c-0.1,0.3-0.2,0.5-0.3,0.8c-0.2,0.6-0.4,1.4-0.7,2.4s-0.6,2.3-1,3.8s-0.8,3.2-1.2,5.1c-2.1,9.8-3.7,19.7-4.8,29.7
		c-1.3,11.7-1.9,22.3-1.9,30.1c0,3.9,0,7,0.1,9.1c0.1,1,0.1,1.8,0.2,2.5C134.4,410,134.4,410.3,134.5,410.5z"/>
	<path class="st7" d="M134.5,390c0.1-0.9,0.1-1.7,0-2.6c-0.1-2.3-0.4-4.7-0.8-7c-0.6-3.5-1.3-6.9-2.3-10.2
		c-1.1-4.1-2.5-8.2-4.3-12.1c-3-7.2-7.2-13.9-12.6-19.6c-0.9-1-1.9-1.9-3-2.8c-0.5-0.4-0.9-0.8-1.3-1.1l-1.1-0.8
		c-0.7-0.5-1.4-1-2.2-1.4c-0.1,0.2,3.1,2.1,7.2,6.4c5.2,5.8,9.3,12.3,12.2,19.5c1.7,3.9,3.1,7.9,4.3,12c1,3.3,1.8,6.7,2.4,10.1
		c0.5,2.9,0.9,5.3,1,7C134.2,388.3,134.4,389.2,134.5,390z"/>
	<polygon class="st7" points="114.7,426.2 116.8,454.4 153,454.4 155,426.2 	"/>
	<rect x="111.2" y="415.1" class="st7" width="48.2" height="11.1"/>
	<polygon class="st5" points="111.2,453.4 111.2,456.4 113.4,456.4 158.6,456.4 158.6,453.4 	"/>
	<polygon class="st5" points="115.7,461.9 113.4,456.4 156.8,456.4 154.2,461.9 	"/>
	<path class="st2" d="M154.4,435.5c0,0.1-0.1,0.2-0.2,0.3l-0.5,0.7l-2.1,2.7l-0.1,0.1l-0.1-0.1c-1.3-1.8-3.1-4.3-5.2-7.2h0.3
		c-1.6,2.2-3.3,4.6-5.1,7.2l-0.2,0.2l-0.2-0.2l-6-7.2h0.4l-0.3,0.4l-5.4,6.8l-0.2,0.2l-0.2-0.2l-5.1-7.2h0.3l-6.3,7.2l-0.1,0.1
		l-0.1-0.1l-2-3.3c-0.2-0.4-0.4-0.6-0.5-0.9c-0.1-0.1-0.1-0.2-0.2-0.3c0.1,0.1,0.1,0.2,0.2,0.3l0.6,0.9l2.1,3.2h-0.2l6.2-7.2
		l0.2-0.2l0.1,0.2l5.2,7.2h-0.4l5.4-6.8l0.3-0.4l0.2-0.2l0.2,0.2l6,7.2h-0.3l5.2-7.2l0.1-0.2l0.1,0.2l5.1,7.2h-0.2l2.2-2.6l0.6-0.7
		C154.3,435.5,154.4,435.5,154.4,435.5z"/>
	<path class="st5" d="M155.5,426.1c0,0.1-9.1,0.2-20.3,0.2s-20.3-0.1-20.3-0.2s9.1-0.2,20.3-0.2S155.5,425.9,155.5,426.1z"/>
	<path class="st7" d="M157.4,456.8c0,0.1-9.9,0.2-22,0.2s-22-0.1-22-0.2s9.9-0.2,22-0.2S157.4,456.6,157.4,456.8z"/>
</g>
<g id="freepik--character-2--inject-4">
	<path class="st8" d="M424.7,241.9c-0.8-3.4,3.2-15.1,0.6-15.4c-3.3-0.3-3.9,13-4,14.2s-1.8,1-1.7,0c0.2-1.5,2.4-16.6-0.9-16.6
		c-1.8,0-1.9,3.3-1.9,3.3s-1.2,14.9-2.8,14.8s-0.5-8.5-0.3-11.7s-1.4-4.8-2.5-3.4c-1.6,1.9-1.6,9.6-1.8,12.6s-1,11.7-4.1,7.4
		s-7.1-6.5-8.6-6.4s-1.7,2.3-0.3,3.1c1.5,1.1,2.8,2.3,3.9,3.7c0.9,1.1,1.6,2.4,2.2,3.7c0.8,1.6,1.4,3.4,1.6,5.3
		c0.4,2.9,2.1,5.5,4.6,7.1l-0.2,23.8l-0.7,11.7l18.5,6.4l-2.4-42c0.9-8.1,4.5-18.3,5.8-23c2.1-7.6,1.1-7.9,0.2-7.9
		C427.9,232.4,425.5,245.2,424.7,241.9z"/>
	<path class="st9" d="M422.3,252.1c-0.8,0.1-1.5,0.2-2.3,0.4c-1.8,0.5-3.4,1.6-4.5,3.1c-0.3,0.5-0.6,1-0.9,1.5l-0.1,0.2l-0.2-0.2
		c-1-1-2.2-1.9-3.5-2.6c-1-0.5-1.6-0.7-1.6-0.7c0.6,0.1,1.2,0.3,1.7,0.5c1.4,0.6,2.6,1.4,3.7,2.5l-0.3,0.1c0.3-0.5,0.6-1.1,0.9-1.5
		c0.7-0.9,1.5-1.6,2.4-2.1c0.7-0.5,1.5-0.8,2.4-1c0.6-0.1,1.1-0.2,1.7-0.2C421.9,252,422.1,252.1,422.3,252.1z"/>
	<path class="st9" d="M421.4,263.3c-2.6,0.9-5.4,1-8,0.3c0-0.1,1.8,0.2,4,0.1S421.4,263.2,421.4,263.3z"/>
	<path class="st7" d="M309.4,201.2c0.5-6.3,5.2-11.4,11.4-12.5c1.6-0.1,3.2-0.4,4.7-0.9c1.1-0.6,2.2-1.4,3.2-2.2
		c3.7-2.2,8.5-1.6,11.5,1.6c2.7,2.9,3.3-1.5,9.3,1.5c5,2.5,2.8,6.6,2.8,6.6c5.1-0.4,9.8,2.8,11.2,7.7c0.8,3,0.4,6.8,3,8.6
		c1.2,0.9,2.9,1,4.1,1.9c2.3,1.6,2.7,4.9,2.4,7.7s-1,5.8,0.3,8.3c2,4.2,8.2,5.4,9.3,9.9c0.5,2.1-0.2,4.8,1.4,6.2
		c0.7,0.5,1.5,0.9,2.3,1.1c5,2,7.4,7.7,5.4,12.7c-0.8,1.9-2.1,3.4-3.8,4.5c-0.8,0.5-1.8,1-2.1,2s0.5,2.1,1,3
		c2.6,4.4,1.2,10.2-3.3,12.8c-2.8,1.7-6.2,1.7-9.1,0.2c-1.6,3.4-4.5,6.1-8.1,7.4c-1.6,0.7-3.4,0.8-5.1,0.5c-1.3-0.4-2.6-1-3.7-1.9
		c-5.3-4-12.7-10.1-13.6-16.6"/>
	<path class="st8" d="M309.3,211.4l-0.2-4.7l27.9-6.2c8.6-1.2,18.3,7.2,19.1,15.9c0.9,9.6,1.6,21.5,0.7,28.7
		c-1.9,14.6-12.9,16.8-12.9,16.8l0.4,14.4l-32.1,1.4L309.3,211.4z"/>
	<path class="st7" d="M350.9,226.9c0,1-0.7,1.9-1.7,1.9c-1,0.1-1.9-0.6-2-1.6c0,0,0,0,0-0.1c0-1,0.7-1.9,1.7-1.9
		C349.8,225.2,350.7,225.9,350.9,226.9C350.9,226.9,350.9,226.9,350.9,226.9z"/>
	<path class="st7" d="M353.2,222.6c-0.2,0.2-1.7-0.8-3.7-0.7s-3.4,1.1-3.7,0.9s0.1-0.6,0.7-1c0.9-0.6,1.9-1,2.9-1
		c1,0,2.1,0.3,2.9,0.8C353.1,222.1,353.4,222.5,353.2,222.6z"/>
	<path class="st7" d="M332.2,227.9c0,1-0.7,1.9-1.7,1.9c-1,0.1-1.9-0.6-2-1.5c0,0,0-0.1,0-0.1c0-1,0.7-1.9,1.7-1.9
		C331.2,226.1,332,226.8,332.2,227.9C332.2,227.8,332.2,227.8,332.2,227.9z"/>
	<path class="st7" d="M333.6,223.6c-0.2,0.2-1.7-0.8-3.7-0.7s-3.4,1.1-3.7,0.9s0.1-0.6,0.7-1c0.8-0.6,1.9-1,2.9-1
		c1,0,2.1,0.3,2.9,0.9C333.5,223.1,333.7,223.5,333.6,223.6z"/>
	<path class="st7" d="M341.3,238.2c1-0.4,2.1-0.6,3.2-0.7c0.5-0.1,1-0.2,1.1-0.5c0-0.5-0.1-1-0.4-1.5c-0.5-1.2-1.1-2.5-1.6-3.9
		c-2.3-5.5-3.9-10-3.7-10.1s2.2,4.3,4.5,9.8c0.5,1.4,1.1,2.6,1.6,3.9c0.3,0.6,0.5,1.3,0.3,2c-0.1,0.4-0.4,0.7-0.8,0.8
		c-0.3,0.1-0.6,0.1-0.9,0.1C343.5,238.3,342.4,238.3,341.3,238.2z"/>
	<path class="st9" d="M343.9,261.9c-7,0.3-13.9-1.3-20.1-4.6c0,0,5.2,10,20.2,8.2L343.9,261.9z"/>
	<path class="st9" d="M340.6,243.1c-0.8-1-2-1.4-3.3-1.2c-0.9,0.1-1.7,0.6-2.2,1.3c-0.5,0.7-0.6,1.7-0.1,2.4
		c0.7,0.7,1.7,0.9,2.6,0.6c0.9-0.4,1.8-0.9,2.5-1.6c0.2-0.2,0.4-0.4,0.5-0.6c0.2-0.2,0.2-0.5,0-0.8"/>
	<path class="st7" d="M335.5,239.8c0.3,0,0.4,2.1,2.3,3.6s4.2,1.2,4.2,1.5c0,0.1-0.5,0.4-1.5,0.5c-1.3,0.1-2.5-0.3-3.5-1.1
		c-1-0.7-1.6-1.8-1.8-3.1C335.1,240.3,335.3,239.8,335.5,239.8z"/>
	<path class="st7" d="M333.9,215.8c-0.2,0.6-2.2,0.4-4.5,0.7s-4.2,1.1-4.5,0.6c-0.1-0.2,0.2-0.8,0.9-1.3c2-1.4,4.6-1.8,6.9-1
		C333.5,215.1,333.9,215.5,333.9,215.8z"/>
	<path class="st7" d="M352.3,216.9c-0.3,0.5-1.7,0-3.4,0.1s-3,0.4-3.4-0.1c-0.1-0.2,0.1-0.7,0.7-1.1c1.7-1.1,3.8-1.1,5.5,0
		C352.3,216.2,352.5,216.6,352.3,216.9z"/>
	<path class="st7" d="M358.6,198.6c-2,5.2-6.6,13.1-12.1,14.1c-5.6,0.9-11.3-1.2-15-5.5c-0.6,4.2-5.1,6.6-9.2,7.5
		c-2.9,0.7-6,0.7-8.8-0.2c-2.9-0.9-5.1-3.2-5.9-6.2c-0.6-2.9,3.2-10.4,6.1-11"/>
	<path class="st7" d="M318.8,275.7c0,4.8-3.1,9.1-7.6,10.7c0.5,4.4-2.7,8.4-7.2,8.9c-3.5,0.4-6.8-1.5-8.2-4.7
		c-0.3-0.9-0.8-1.8-1.4-2.6c-1.5-1.7-4.3-1.1-6.5-1.7c-4-1-6-5.7-5.9-9.8c0.1-0.8,0.1-1.6-0.1-2.4c-0.4-1.6-1.7-2.8-2.8-4.1
		c-4.3-5.3-3.3-13.5,0.7-19.1c1.3-1.9,3-3.8,2.7-6.1c-0.3-1.2-0.8-2.4-1.5-3.5c-1.7-3.9-1-8.4,2-11.5c0.9-0.5,1.4-1.7,1-2.7
		c-1-6.3,3.1-12.2,9.3-13.6c0.4,0,0.7-0.1,1-0.3c0.9-0.6,0.8-1.8,0.9-2.9c0.1-2.8,1.9-8.1,3.9-10c5.5-5.4,11.4-1.8,13.6,0
		c0,0,5.4,19.5,4.9,23.3s-2.6,13.1-1.2,17.2s3.8,12.5,2.3,16.4C317.3,261.2,318.8,275.7,318.8,275.7z"/>
	<path class="st6" d="M353.9,438.4c0,0,42.3,11.7,44,12.3c2.5,0.9,2.1,10.2-1.9,10.1c-1.9-0.1-32.5,1.1-36.4,0.9s-15.5-4.8-15.5-4.8
		L353.9,438.4z"/>
	<path class="st7" d="M371.6,454.5c0.2,0,0.5-2.2,1.9-4.5s3.1-3.7,3-3.9s-2.2,1-3.6,3.5S371.4,454.6,371.6,454.5z"/>
	<path class="st7" d="M367.1,452.5c0.2,0,0.6-2,1.8-4.2s2.5-3.8,2.3-3.9s-1.8,1.2-2.9,3.6S367,452.5,367.1,452.5z"/>
	<path class="st7" d="M363,451.4c0.2,0,0-2.1,1-4.5s2.5-3.8,2.3-4s-2,1.1-3,3.7S362.8,451.5,363,451.4z"/>
	<path class="st7" d="M363.8,446c0.4-1,0.5-2.1,0.5-3.1c0-1.2-0.2-2.3-0.4-3.5c-0.2-0.7-0.4-1.4-0.6-2c-0.1-0.4-0.4-0.7-0.7-1
		c-0.4-0.3-1-0.3-1.5,0.1c-0.3,0.3-0.5,0.7-0.6,1.2c0,0.4-0.1,0.7,0,1.1c0,0.7,0.1,1.4,0.3,2.1c0.3,1.1,0.7,2.2,1.3,3.2
		c0.5,1,1.1,1.8,1.9,2.5c0.1-0.1-0.6-1-1.5-2.8c-0.5-1-0.9-2.1-1.1-3.1c-0.1-0.6-0.2-1.3-0.2-1.9c0-0.6,0-1.5,0.4-1.8
		c0.1-0.2,0.4-0.2,0.6,0c0.2,0.2,0.4,0.5,0.5,0.7c0.3,0.6,0.5,1.2,0.6,1.9c0.3,1.1,0.5,2.2,0.6,3.3C363.8,444.8,363.6,446,363.8,446
		z"/>
	<path class="st7" d="M363.7,445.5c-0.9-0.4-1.8-0.5-2.7-0.4c-1,0-2,0.1-3,0.4c-0.6,0.1-1.2,0.3-1.7,0.6c-0.7,0.3-1.1,1.1-1,1.9
		c0.2,0.7,0.8,1.3,1.5,1.5c0.6,0.2,1.3,0.2,1.9,0c1-0.3,1.9-0.7,2.8-1.4c0.8-0.5,1.5-1.2,2-1.9c-0.8,0.5-1.5,1-2.2,1.5
		c-0.8,0.5-1.7,0.9-2.6,1.1c-0.5,0.1-1.1,0.1-1.6,0c-0.5-0.1-0.9-0.5-1-1c-0.1-0.5,0.2-1,0.6-1.2c0.5-0.3,1-0.5,1.5-0.6
		c0.9-0.3,1.9-0.4,2.9-0.5C362.6,445.5,363.7,445.7,363.7,445.5z"/>
	<path class="st7" d="M378.1,455c0.2,0,0-1.8,0.8-3.8s2.2-3.1,2.1-3.3s-1.8,0.8-2.7,3S377.9,455.1,378.1,455z"/>
	<path class="st7" d="M348.5,457c0.5,0.3,1.1,0.6,1.6,0.8c1.5,0.6,3.1,1.1,4.7,1.5c5.3,1.1,10.7,1.6,16.1,1.5
		c6.3-0.1,12.1-0.4,16.2-0.5l4.9-0.3c0.6,0,1.2-0.1,1.8-0.2c-0.6-0.1-1.2-0.1-1.8-0.1h-4.9L371,460c-5.4,0.1-10.7-0.3-16-1.3
		C350.9,457.9,348.6,456.8,348.5,457z"/>
	<path class="st7" d="M347.3,457.9c0.1,0.1,1.2-0.6,3.2-1.4c2.5-1.2,5.3-1.6,8-1.3c3.2,0.5,5.5,2.6,6.9,4.1c0.8,0.9,1.6,1.7,2.4,2.5
		c-0.6-1-1.3-2-2.1-2.8c-0.8-1-1.8-1.9-2.8-2.6c-1.3-1-2.8-1.6-4.4-1.9c-2.9-0.3-5.8,0.2-8.3,1.6
		C349.1,456.5,348.1,457.1,347.3,457.9z"/>
	<g class="st10">
		<path d="M353.9,438.4c0,0,42.3,11.7,44,12.3c2.5,0.9,2.1,10.2-1.9,10.1c-1.9-0.1-32.5,1.1-36.4,0.9s-15.5-4.8-15.5-4.8
			L353.9,438.4z"/>
	</g>
	<path class="st7" d="M306.9,389.8l-9.1,18.8c0,0-48.9-14.9-61.2-14.2s-22.4,5.6-24.8,15.6s-2.7,23.8,11.6,33.4s85.8,14.9,85.8,14.9
		h28.2l46.2-60.9l-7.4-6L306.9,389.8z"/>
	<path class="st5" d="M322.2,431c-0.3,0-0.6,0-0.9,0c-0.6,0-1.5,0-2.6-0.2c-3.2-0.4-6.5-1.1-9.6-2c-4.6-1.4-9.1-3.2-13.5-5.3
		c-4.9-2.3-10.2-5.2-15.8-8.2c-5.2-2.8-10.5-5.4-16-7.6c-4.4-1.8-9.1-3.2-13.8-4.1c-3.2-0.6-6.4-0.9-9.7-0.8c-1.1,0-2,0.1-2.6,0.1
		c-0.3,0-0.6,0-0.9,0c0.3-0.1,0.6-0.1,0.9-0.1c0.6,0,1.5-0.2,2.6-0.2c3.3-0.1,6.5,0.1,9.8,0.6c4.8,0.8,9.4,2.2,13.9,4
		c5.5,2.2,10.8,4.8,16,7.6c5.5,3,10.8,5.9,15.7,8.2c4.3,2.1,8.8,3.9,13.4,5.4c3.1,1,6.3,1.7,9.5,2.1c1.1,0.2,2,0.2,2.6,0.3
		C321.6,430.8,321.9,430.9,322.2,431z"/>
	<path class="st7" d="M355.6,453.3c9.1-3.6,59-19.5,76.7-39.9c4.2-4.6,6-10.9,4.8-17c-2.5-13.6-15-22.7-28-17.6
		c-1.9,0.7-6.1,2.4-7.9,3.3c-4.8,2.6-83.4,52.4-83.4,52.4s13.7,26.7,13.3,27.7L355.6,453.3z"/>
	<path class="st5" d="M380.2,394.1c-0.1,0.1-0.1,0.1-0.2,0.2l-0.7,0.5l-2.6,1.7l-9.5,6l-31.4,19.7l-17.1,10.6l0.1-0.4
		c3.6,8.7,6.7,16.2,9,21.5c1.1,2.6,1.9,4.7,2.5,6.2c0.3,0.7,0.5,1.2,0.6,1.6c0.1,0.2,0.1,0.4,0.2,0.6c-0.1-0.2-0.2-0.4-0.3-0.5
		c-0.2-0.4-0.4-1-0.7-1.6l-2.7-6.1c-2.3-5.3-5.4-12.7-9.1-21.4l-0.1-0.2l0.2-0.1l17-10.7l31.5-19.6l9.6-5.9l2.6-1.6l0.7-0.4
		C380.1,394.1,380.2,394,380.2,394.1z"/>
	<path class="st5" d="M311.3,417.6c-0.8-0.2-1.6-0.5-2.3-0.9c-1.8-0.9-3.5-1.9-5.1-3.1c-1.6-1.2-3.1-2.5-4.5-4
		c-0.6-0.6-1.1-1.2-1.5-2c0.1-0.1,2.6,2.7,6.4,5.4S311.3,417.4,311.3,417.6z"/>
	<path class="st5" d="M338.4,395.5c0.1,1,0.2,2.1,0.1,3.1c0,1.9,0.1,4.6,0.4,7.5s0.7,5.5,1,7.5c0.2,1,0.4,2.1,0.4,3.1
		c-0.4-1-0.7-2-0.9-3c-1.1-4.9-1.6-10-1.4-15C338.1,397.6,338.2,396.5,338.4,395.5z"/>
	<path class="st5" d="M344.3,394.8c0,0,0.2-0.1,0.6,0.1c0.5,0.2,1,0.6,1.3,1.1c0.5,0.7,0.6,1.7,0.4,2.5c-0.4,1.1-1.4,1.8-2.6,1.8
		c-1.1,0.1-2.2-0.5-2.7-1.6c-0.3-0.8-0.2-1.8,0.3-2.5c0.3-0.5,0.8-0.8,1.4-1c0.2-0.1,0.4-0.1,0.6,0c-0.7,0.2-1.2,0.7-1.6,1.2
		c-0.4,0.6-0.4,1.4-0.2,2.1c0.4,0.8,1.2,1.3,2.1,1.2c0.9,0,1.7-0.5,2-1.4c0.2-0.7,0.2-1.5-0.2-2.1
		C345.4,395.6,344.9,395.2,344.3,394.8z"/>
	<path class="st5" d="M320.1,392.9c0.2,0.3,0.3,0.6,0.4,0.9c0.3,0.9,0.4,1.8,0.4,2.8c0,1.4-0.3,2.7-0.9,4c-1.4,3.2-4.6,5.4-8.1,5.5
		c-1.4,0.1-2.8-0.2-4.1-0.7c-0.9-0.3-1.7-0.8-2.4-1.4c-0.3-0.2-0.5-0.5-0.7-0.8c1,0.7,2.1,1.4,3.2,1.9c1.3,0.4,2.6,0.6,3.9,0.5
		c3.3-0.1,6.3-2.1,7.6-5.1c0.6-1.2,0.9-2.5,1-3.8C320.6,395.3,320.4,394.1,320.1,392.9z"/>
	<path class="st5" d="M366.7,402.1c-0.6,0.1-1.3,0-1.9-0.3c-3-1-4.9-4-4.7-7.2c0-0.6,0.2-1.3,0.5-1.8c0.1,0-0.1,0.7-0.1,1.8
		c0,2.9,1.7,5.6,4.4,6.8C366,402,366.7,402,366.7,402.1z"/>
	<path class="st5" d="M391.1,439.5c0,0,0.1-0.1,0.3-0.2l0.9-0.4l3.5-1.7c3-1.5,7.4-3.6,12.6-6.4c6.2-3.2,12-7.1,17.4-11.6
		c3.1-2.7,5.9-5.7,8.3-9c2.4-3.7,3.4-8.2,3-12.6c-0.2-2.2-0.7-4.4-1.6-6.4c-0.4-1-1-1.9-1.6-2.8c-0.6-0.9-1.3-1.7-2.1-2.5
		c-1.5-1.5-3-2.9-4.7-4.2c-1.5-1.4-3.2-2.4-5.1-3c-1.8-0.5-3.7-0.7-5.6-0.6c-1.8,0-3.6,0.2-5.4,0.6c-3.2,0.7-6.2,1.8-9,3.4
		l-12.4,6.9l-3.4,1.9l-0.9,0.5l-0.3,0.1c0.1-0.1,0.2-0.1,0.3-0.2l0.9-0.5l3.3-1.9c2.9-1.6,7.1-4.1,12.3-7c2.8-1.6,5.9-2.8,9.1-3.5
		c1.8-0.4,3.6-0.6,5.4-0.6c1.9-0.1,3.9,0.1,5.8,0.6c1.9,0.6,3.7,1.7,5.2,3.1c1.6,1.3,3.2,2.7,4.7,4.2c0.8,0.8,1.5,1.6,2.1,2.5
		c0.6,0.9,1.2,1.9,1.6,2.9c2.8,6.3,2.3,13.5-1.4,19.4c-2.4,3.4-5.2,6.4-8.4,9.1c-5.4,4.5-11.3,8.4-17.5,11.5
		c-5.3,2.8-9.6,4.9-12.7,6.3l-3.5,1.6l-0.9,0.4L391.1,439.5z"/>
	<path class="st6" d="M321.2,438.7c0,0-42.5,11.2-44.2,11.8c-2.6,0.9-2.2,10.2,1.7,10.1c1.9,0,32.5,1.5,36.4,1.4s14.4-4.2,14.4-4.2
		L321.2,438.7z"/>
	<path class="st7" d="M303.4,454.6c-0.2,0-0.5-2.2-1.8-4.6s-3.1-3.8-2.9-3.9s2.2,1,3.6,3.6S303.6,454.6,303.4,454.6z"/>
	<path class="st7" d="M307.8,452.6c-0.2,0-0.6-2-1.7-4.2s-2.4-3.8-2.3-3.9s1.8,1.3,2.9,3.6S308,452.6,307.8,452.6z"/>
	<path class="st7" d="M312,451.6c-0.2,0,0-2.1-0.9-4.5s-2.4-3.8-2.3-4s2,1.2,2.9,3.7S312.1,451.7,312,451.6z"/>
	<path class="st7" d="M311.3,446.1c-0.4-1-0.5-2.1-0.4-3.2c0-1.2,0.2-2.3,0.5-3.5c0.2-0.7,0.4-1.3,0.6-2c0.1-0.4,0.4-0.7,0.7-1
		c0.4-0.3,1.1-0.3,1.5,0.1c0.3,0.3,0.5,0.7,0.5,1.2c0,0.4,0.1,0.7,0,1.1c0,0.7-0.1,1.4-0.3,2.1c-0.3,1.1-0.7,2.2-1.3,3.2
		c-0.5,1-1.1,1.8-1.9,2.5c-0.1-0.1,0.6-1,1.5-2.8c0.5-1,0.9-2,1.1-3.1c0.1-0.6,0.2-1.3,0.2-1.9c0-0.6,0-1.5-0.4-1.8
		c-0.1-0.2-0.4-0.2-0.6-0.1c-0.2,0.2-0.4,0.5-0.5,0.7c-0.3,0.6-0.5,1.2-0.7,1.9c-0.3,1.1-0.5,2.2-0.6,3.3
		C311.2,444.9,311.4,446.1,311.3,446.1z"/>
	<path class="st7" d="M311.4,445.7c0.9-0.4,1.8-0.5,2.7-0.4c1,0,2,0.1,3,0.4c0.6,0.1,1.2,0.4,1.7,0.6c0.7,0.4,1.1,1.2,0.9,2
		c-0.2,0.7-0.8,1.3-1.5,1.5c-0.6,0.2-1.3,0.2-1.9,0c-1-0.3-1.9-0.7-2.7-1.4c-0.8-0.5-1.4-1.2-1.9-2c0.8,0.5,1.5,1,2.2,1.5
		c0.8,0.5,1.7,0.9,2.6,1.2c0.5,0.1,1.1,0.1,1.6,0c0.5-0.1,0.9-0.5,1-1c0.1-0.5-0.2-1-0.6-1.2c-0.5-0.3-1-0.5-1.5-0.6
		c-0.9-0.3-1.9-0.5-2.9-0.5C312.4,445.6,311.4,445.8,311.4,445.7z"/>
	<path class="st7" d="M296.9,455c-0.2,0,0-1.8-0.8-3.8s-2.2-3.2-2-3.3s1.8,0.9,2.7,3.1S297,455,296.9,455z"/>
	<path class="st7" d="M326.4,457.3c-0.5,0.3-1.1,0.6-1.6,0.8c-1.5,0.6-3.1,1-4.7,1.4c-5.3,1.1-10.8,1.5-16.2,1.3
		c-6.4-0.1-12.1-0.5-16.2-0.7l-4.9-0.3c-0.6,0-1.2-0.1-1.8-0.2c0.6-0.1,1.2-0.1,1.8-0.1l4.9,0.1l16.2,0.5c5.4,0.2,10.8-0.1,16.1-1.1
		C324,458.2,326.3,457.2,326.4,457.3z"/>
	<path class="st7" d="M327.6,458.3c-0.1,0.1-1.2-0.6-3.2-1.5c-2.5-1.2-5.3-1.7-8-1.4c-3.2,0.4-5.5,2.6-7,4c-0.8,0.9-1.6,1.7-2.5,2.5
		c0.6-1,1.3-2,2.1-2.8c0.8-1,1.8-1.8,2.8-2.6c1.3-0.9,2.8-1.6,4.4-1.8c2.9-0.3,5.8,0.3,8.3,1.7C325.7,456.8,326.7,457.5,327.6,458.3
		z"/>
	<path class="st7" d="M285.1,459.6c-0.1,0,0.3-0.6,0.6-1.6c0.9-2.6,0.4-5.5-1.3-7.6c-0.6-0.8-1.2-1.2-1.1-1.3s0.7,0.2,1.4,1
		c2.1,2.1,2.6,5.3,1.4,8C285.7,459.1,285.2,459.6,285.1,459.6z"/>
	<path class="st6" d="M319.3,273.7l-21.8,6.1l7.1,67.9c0,0-4.1,24.3-4.1,30.6c-0.1,4.7,2.3,9.1,6.4,11.4l69.8,2.1l3.6-3.1
		c1.8-2.2,2.7-5,2.3-7.8l-13-103.7l-24.3-5.3L319.3,273.7z"/>
	<path class="st7" d="M304.6,347.7c-0.1-0.2-0.1-0.3-0.1-0.5l-0.3-1.5c-0.2-1.3-0.6-3.2-1-5.5c-0.8-4.7-1.9-11.1-3.2-18.1
		s-2.3-13.5-3-18.1c-0.4-2.3-0.7-4.2-0.9-5.5c-0.1-0.6-0.2-1.1-0.2-1.5c0-0.2,0-0.4,0-0.5c0.1,0.2,0.1,0.3,0.1,0.5
		c0.1,0.4,0.2,0.9,0.3,1.5c0.2,1.3,0.6,3.2,1,5.5c0.8,4.7,1.9,11.1,3.2,18.1l3.1,18.1c0.4,2.3,0.7,4.2,0.9,5.5
		c0.1,0.6,0.2,1.1,0.2,1.5C304.6,347.3,304.6,347.5,304.6,347.7z"/>
	<path class="st7" d="M348.4,273.3c-0.3,0.3-0.6,0.6-1,0.8c-0.3,0.2-0.8,0.5-1.3,0.8s-1.1,0.6-1.8,0.9c-1.6,0.7-3.3,1.2-5,1.5
		c-2.1,0.4-4.2,0.6-6.3,0.7c-2.1,0-4.2,0-6.3-0.2c-1.7-0.1-3.4-0.3-5.1-0.7c-1.1-0.2-2.3-0.6-3.3-1.1c-0.4-0.2-0.6-0.3-0.8-0.5
		l-0.3-0.2c0.4,0.1,0.8,0.3,1.2,0.5c1.1,0.4,2.2,0.8,3.3,1c1.7,0.3,3.4,0.5,5.1,0.6c1.9,0.1,4.1,0.2,6.3,0.2c2.1,0,4.2-0.2,6.3-0.6
		c1.7-0.3,3.3-0.8,4.9-1.4C345.6,274.9,347,274.2,348.4,273.3z"/>
	<path class="st7" d="M370.9,378.1c-0.2,0.1-0.3,0.1-0.5,0.1l-1.4,0.2c-0.6,0.1-1.3,0.2-2.2,0.2s-1.8,0.2-2.9,0.2
		c-2.1,0.2-4.7,0.2-7.6,0.2s-6-0.2-9.2-0.6s-6.4-1-9.1-1.6s-5.3-1.3-7.3-2c-1-0.3-2-0.6-2.8-0.9s-1.5-0.5-2-0.8l-1.3-0.5
		c-0.2,0-0.3-0.1-0.4-0.2c0.2,0,0.3,0.1,0.5,0.1l1.3,0.5c0.6,0.2,1.3,0.4,2.1,0.7s1.7,0.6,2.8,0.9c2,0.6,4.5,1.3,7.3,1.9
		s5.9,1.1,9.1,1.5s6.4,0.6,9.2,0.7s5.4,0,7.5-0.1c1.1,0,2-0.1,2.9-0.2s1.6-0.1,2.2-0.2l1.4-0.1L370.9,378.1z"/>
	<path class="st7" d="M379,319.8c-0.1-0.3-0.3-0.6-0.3-1c-0.2-0.6-0.4-1.5-0.7-2.6c-0.6-2.2-1.4-5.3-2.1-8.7s-1.4-6.5-1.8-8.8
		c-0.2-1.1-0.3-2-0.4-2.7c-0.1-0.3-0.1-0.7-0.1-1c0.1,0.3,0.2,0.7,0.3,1c0.1,0.7,0.3,1.6,0.6,2.7c0.5,2.2,1.1,5.4,1.9,8.8
		s1.5,6.5,2,8.7c0.2,1.1,0.5,2,0.6,2.6C378.9,319.2,379,319.5,379,319.8z"/>
	<g class="st10">
		<path d="M326.9,276.8c0.9,3,0.1,7.5,0.5,10.2c1.8,10.9,2.4,21.9,1.8,32.9c-0.1,0.6,0,1.2,0.1,1.8c0.2,0.5,0.5,1,0.9,1.4
			c2.2,2.9,2.8,6.8,2.3,10.5c-0.6,3.6-1.7,7.2-3.2,10.5c-0.1-2.9,0.1-7.3,0.3-10.2c0-0.6,0.4-0.2,0.4-0.8c0.1-3.5-0.5-6.8-3-9.3
			c-0.5-0.5-1-1-1.4-1.6c-0.3-0.6-0.4-1.2-0.5-1.9c-1.5-12.3-2.6-24.6-3.1-37c-0.1-0.7,0-1.4,0.4-2c0.4-0.4,0.9-0.7,1.4-0.9
			c1-0.6,1.5-1.7,2.6-2.2"/>
	</g>
	<path class="st6" d="M297.4,279.8c0,0-19.9,4.7-15.1,34.6c2.3,14.6,6.3,28.8,11.9,42.4c3.3,7.7,10.7,13,19,11.9
		c3.6-0.5,7.2,0.1,9.6-1.4c3.7-2.2,5.3-9.7,6-17.8c0.5-5.5,0.3-11.2,1-15.9c1.2-7.7-2.3-11.3-6.8-12.2l-17.7-3.5l-1,9.3L297.4,279.8
		z"/>
	<path class="st7" d="M311.5,339.3c0,0,0.3,0.4,1,0.9c1,0.7,2.1,1.2,3.3,1.3c1.8,0.2,3.6-0.1,5.2-0.7c2.1-0.7,4-1.8,5.6-3.2
		c1.6-1.5,2.6-3.5,2.9-5.6c0.3-1.8,0.1-3.6-0.6-5.2c-0.7-1.5-1.6-2.9-2.8-4c0.4,0.2,0.8,0.5,1.1,0.8c0.9,0.8,1.6,1.9,2.2,3
		c0.8,1.7,1.1,3.6,0.8,5.5c-0.3,2.3-1.4,4.4-3.1,6c-1.7,1.5-3.7,2.6-5.9,3.4c-1.8,0.7-3.7,0.9-5.5,0.6c-1.3-0.2-2.4-0.7-3.4-1.6
		C311.9,340,311.6,339.7,311.5,339.3z"/>
	<path class="st7" d="M293.1,354.2c0.1,0,0.4,0.9,1.2,2.6c1.2,2.3,2.7,4.3,4.5,6.1c2.7,2.6,6.1,4.5,9.8,5.4c4.5,1.1,9.2,0.8,13.5-1
		c2.3-0.9,3.1-3.4,3.9-5.5c0.8-2.1,1.3-4.3,1.7-6.5c0.6-3.8,0.9-7.5,1.1-11.3c0.2-3.2,0.4-5.8,0.6-7.7c0.1-0.8,0.1-1.5,0.2-2.1
		c0-0.2,0-0.5,0.1-0.7c0,0.2,0,0.5,0,0.7c0,0.6,0,1.2,0,2.1c-0.1,1.9-0.2,4.5-0.4,7.7c-0.1,3.8-0.5,7.6-1,11.4
		c-0.3,2.2-0.9,4.5-1.7,6.6c-0.4,1.1-0.9,2.2-1.5,3.3c-0.6,1.2-1.6,2.1-2.8,2.6c-4.4,1.8-9.4,2.1-14,0.9c-6.3-1.6-11.6-6-14.4-12
		c-0.3-0.6-0.6-1.3-0.8-2C293.2,354.7,293.2,354.4,293.1,354.2z"/>
	<path class="st7" d="M299.8,341.2c-0.1-1.2-0.1-2.4,0-3.6c0.1-2.2,0.3-5.3,0.6-8.6c0.1-1.7,0.3-3.3,0.4-4.8
		c0.1-1.4,0.6-2.6,1.4-3.8c0.6-0.7,1.4-1.3,2.3-1.5c0.3-0.1,0.7-0.1,1,0c0,0.1-0.4,0-0.9,0.2c-0.8,0.3-1.5,0.8-1.9,1.5
		c-1.3,1.7-1.1,4.9-1.5,8.3s-0.6,6.4-0.8,8.6C300.2,338.9,300.1,340.1,299.8,341.2z"/>
	<path class="st7" d="M306,309.5c-0.2-0.9-0.5-2.3-0.8-4c-0.7-3.4-1.8-8-3-13.1c-0.5-2.4-1.1-4.8-1.9-7.2c-0.6-2-1.6-3.8-2.9-5.4
		l-0.4,0.3c1.2,1.6,2.1,3.4,2.7,5.3c0.7,2.1,1.2,4.6,1.8,7.1c1.2,5.1,2.3,9.8,3.2,13.1c0.4,1.7,0.8,3,1,4c0.1,0.5,0.3,1,0.5,1.4
		C306.2,310.5,306.1,310,306,309.5z"/>
	<g class="st10">
		<path d="M306.2,315.9c-1.6,0-3.2,0.6-4.5,1.5c-2.9,2-5,5-5.9,8.4c-0.9,3.4-0.7,7,0.5,10.3c0.4,1,1.1,2.2,2.2,2.1
			c1.3,0,1.8-1.6,2-2.9c0.5-3.5,1-7,1.5-10.6c0.1-1.2,0.4-2.4,0.9-3.5c0.6-1.1,1.7-1.8,2.9-1.8l0.3-3.8"/>
	</g>
	<path class="st6" d="M424.9,332c2.5-4.2,3.9-9,4.1-13.8c0.2-5.1-0.5-10.3-2-15.2l-21.2-6.6l-0.1,7.1L424.9,332z"/>
	<path class="st6" d="M405.7,303.5l-36.1-26.1v1.8l3.9,40.7c0,0,29.9,13.4,37.8,15.4c4.8,1.1,9.8-0.1,13.6-3.2L405.7,303.5z"/>
	<path class="st7" d="M416.4,323.2c-0.3-0.1-0.6-0.3-0.8-0.4c-0.7-0.5-1.4-1-2-1.5c-2-1.9-3.6-4.2-4.8-6.7c-1.2-2.5-2.1-5.1-2.8-7.8
		c-0.3-1-0.5-1.9-0.6-2.4c-0.1-0.3-0.1-0.6-0.1-0.9c0.4,1.1,0.8,2.1,1.1,3.2c0.8,2.6,1.7,5.2,2.9,7.7c1.2,2.5,2.7,4.7,4.6,6.7
		C415.4,322.5,416.5,323.1,416.4,323.2z"/>
	<path class="st7" d="M426.9,308.1c-0.3,0-0.6,0-0.9,0c-0.8,0-1.7-0.1-2.5-0.3c-5.6-0.9-10.8-3.3-15.1-7c-0.7-0.5-1.3-1.1-1.9-1.8
		c-0.4-0.4-0.6-0.7-0.6-0.7s1,0.9,2.7,2.2c2.2,1.7,4.5,3.2,7.1,4.4c2.5,1.2,5.2,2,7.9,2.6C425.6,307.9,426.9,308,426.9,308.1z"/>
	<path class="st7" d="M407.3,319.8c-0.5-0.7-0.9-1.4-1.1-2.2c-0.7-1.9-1.1-3.9-1.2-5.9c-0.1-2-0.1-4,0-6c0-0.8,0.1-1.7,0.3-2.5
		c0.1,0.8,0.1,1.7,0.1,2.5c0,1.5-0.1,3.7,0.1,6c0.1,2,0.4,3.9,1,5.9C407,318.9,407.4,319.8,407.3,319.8z"/>
	<path class="st7" d="M369,293c0.2,0.4,0.3,0.7,0.4,1.1c0.2,0.7,0.5,1.8,0.8,3.1c0.7,2.6,1.5,6.2,2.4,10.2s1.5,7.7,1.9,10.3
		c0.2,1.3,0.4,2.4,0.5,3.1c0.1,0.4,0.1,0.8,0.1,1.2c-0.1-0.4-0.2-0.7-0.3-1.1l-0.6-3.1c-0.6-2.7-1.3-6.3-2.1-10.3s-1.6-7.5-2.2-10.2
		c-0.3-1.2-0.5-2.3-0.7-3.1C369.1,293.8,369.1,293.4,369,293z"/>
	<path class="st8" d="M305.1,321.7l4.4-49l14.7,5.8l1.9,49.8c0,0-4.7,7.1-12.6,4.2C308.8,330.8,305.6,326.6,305.1,321.7z"/>
	<polygon class="st7" points="308,229.8 335.4,253.9 330.4,271.9 328.4,272.5 304.5,248 306,230.4 	"/>
	<polygon class="st5" points="306,230.4 333.4,254.5 328.4,272.5 302.5,248.6 	"/>
	<path class="st8" d="M324.8,280c1.7-1.9,2.7-4.2,2.8-6.7c-0.1-3.7-1.1-12.6-1.1-12.6s4.8-10,4.6-11.4s-0.3-1.3-2-0.8s-7,9.7-7,9.7
		l-1.7-6.8c0,0,4.4-7.1,4.8-8.1s0.9-1.8-0.2-1.9s-9.4,7.9-9.4,7.9l0.7,7.4c0,0-0.2,0.6-1.4-0.5s-0.9-9.9-0.9-9.9s2.8-5.2,2.8-6
		s0.5-1.6,0-2.9s-2.2,0.2-2.2,0.2L309,245l-2-7.1c0,0,0.1-1.5-1.9-1.5l0.8,23.2l5,17.8L324.8,280z"/>
	<path class="st9" d="M326.1,328.3c0,0,0-0.3-0.1-0.9s-0.1-1.5-0.1-2.6c-0.1-2.3-0.2-5.5-0.4-9.7c-0.3-8.5-0.8-20.5-1.4-35.1V280
		l0.1-0.1c1.2-1,2.1-2.3,2.7-3.8c0.5-1.5,0.7-3.2,0.5-4.8c-0.2-3.4-0.6-6.9-1.1-10.5v-0.1v-0.1c0.9-1.9,1.8-3.9,2.7-5.9
		c0.4-1,0.9-2,1.3-3.1c0.2-0.5,0.4-1.1,0.5-1.6l0.1-0.4c0-0.1,0-0.2,0-0.3c0-0.2-0.1-0.5-0.1-0.7c0.1-0.2-0.7,0-1.2,0.2
		c-0.2,0.1-0.5,0.2-0.6,0.3c-0.2,0.2-0.4,0.4-0.6,0.6c-0.8,0.9-1.5,1.8-2.1,2.7c-1.3,1.9-2.6,3.9-3.8,6l-0.4,0.7l-0.2-0.8
		c-0.5-2.1-1.1-4.4-1.7-6.8v-0.1l0.1-0.1l2.2-3.7c0.9-1.4,1.8-2.9,2.5-4.3c0.1-0.4,0.3-0.8,0.4-1.1c0.1-0.2,0-0.3,0-0.2
		c-0.1-0.1-0.2-0.1-0.3-0.1c-0.1,0.1-0.3,0.1-0.4,0.2c-0.2,0.1-0.3,0.2-0.5,0.3c-0.3,0.2-0.7,0.5-1,0.8c-2.5,2.1-4.9,4.3-7.2,6.6
		l0.1-0.3c0.2,2.5,0.5,5,0.7,7.4v0.1c-0.1,0.3-0.4,0.5-0.7,0.4c-0.2,0-0.3-0.1-0.5-0.2c-0.2-0.1-0.5-0.3-0.7-0.5
		c-0.4-0.4-0.6-0.9-0.7-1.5c-0.2-1-0.3-2-0.3-3c-0.1-2-0.1-3.9,0-5.8v-0.1v-0.1c1-1.8,1.9-3.6,2.7-5.5c0-0.1,0-0.2,0.1-0.3
		c0-0.1,0-0.3,0-0.4c0-0.3,0.1-0.5,0.1-0.8c0.1-0.4,0.1-0.9,0-1.3c-0.1-0.5-0.3-0.7-0.7-0.6c-0.4,0.1-0.8,0.3-1.1,0.6l0,0l-5.5,7.2
		l-0.4,0.5l-0.2-0.6c-0.7-2.5-1.3-4.9-1.9-7.1v-0.1c0-0.4-0.2-0.8-0.5-1c-0.3-0.2-0.7-0.3-1.1-0.3l0.3-0.3
		c0.3,9.4,0.5,17.2,0.7,23.2l0,0c1.1,4.2,2,7.5,2.5,9.8l0.6,2.5c0.1,0.6,0.2,0.9,0.2,0.9s-0.1-0.3-0.3-0.9s-0.4-1.4-0.7-2.5
		c-0.6-2.2-1.5-5.5-2.7-9.8l0,0l0,0l-0.8-23.3v-0.3h0.3c0.5,0,1,0.1,1.4,0.4c0.5,0.3,0.8,0.9,0.7,1.4v-0.1c0.7,2.3,1.3,4.7,2,7.1
		l-0.5-0.1l5.5-7.2l0,0l0,0c0.4-0.4,0.9-0.7,1.4-0.8c0.4-0.1,0.7,0,1,0.3c0.2,0.2,0.4,0.5,0.4,0.8c0.2,0.5,0.2,1.1,0.1,1.6
		c0,0.3-0.1,0.5-0.1,0.7c0,0.1,0,0.2,0,0.4c0,0.2,0,0.3-0.1,0.5c-0.8,1.9-1.7,3.8-2.7,5.6v-0.1c0,1.9,0,3.8,0.1,5.7
		c0,1,0.1,1.9,0.3,2.9c0,0.4,0.2,0.8,0.5,1.1c0.2,0.1,0.3,0.3,0.5,0.4c0.1,0,0.1,0.1,0.2,0.1l0,0c0,0,0,0.1,0,0.1l0,0l0,0l0,0l0,0
		c0.2,0.1-0.2-0.1-0.2-0.1v0.1c-0.2-2.4-0.4-4.9-0.7-7.4v-0.2l0.1-0.1c2.3-2.2,4.7-4.5,7.3-6.6c0.3-0.3,0.7-0.5,1-0.8
		c0.2-0.1,0.3-0.2,0.5-0.4c0.2-0.2,0.5-0.3,0.7-0.3c0.3,0,0.6,0.1,0.8,0.3c0.2,0.3,0.3,0.6,0.2,0.9c-0.1,0.5-0.3,0.8-0.5,1.2
		c-0.8,1.6-1.7,3-2.5,4.5l-2.2,3.7v-0.3l1.7,6.8l-0.6-0.1c1.2-2.1,2.5-4.1,3.8-6c0.7-1,1.4-1.9,2.2-2.8c0.2-0.2,0.4-0.4,0.7-0.6
		c0.3-0.2,0.6-0.4,0.9-0.4c0.3-0.1,0.6-0.2,0.9-0.2c0.2,0,0.4,0,0.5,0c0.2,0,0.5,0.2,0.6,0.4c0.1,0.3,0.2,0.7,0.2,1
		c0,0.2,0,0.3,0,0.5l-0.1,0.4c-0.2,0.6-0.4,1.1-0.6,1.6c-0.4,1-0.9,2.1-1.3,3.1c-0.9,2-1.8,4-2.7,5.9v-0.2c0.5,3.6,0.9,7.2,1,10.6
		c0.2,1.7,0,3.4-0.6,5.1c-0.6,1.5-1.6,2.9-2.9,4l0.1-0.2c0.5,14.6,0.9,26.6,1.1,35.1c0.1,4.2,0.2,7.5,0.3,9.7c0,1.1,0,1.9,0,2.5
		S326.1,328.3,326.1,328.3z"/>
	<path class="st9" d="M310.1,257.6c-0.2,0-0.6-2.8-0.9-6.3s-0.3-6.4-0.1-6.4s0.6,2.8,0.9,6.3S310.3,257.6,310.1,257.6z"/>
</g>
<g>
	<path class="st11" d="M360.4,294.8c0.3-0.1,0.6-0.4,0.8-0.7c0.2-0.3,0.2-0.7,0.1-1c-0.2-0.6-0.7-1-1.3-1.1c-0.7,0-1.2,0.4-1.4,1
		c-0.1,0.3-0.1,0.6,0,0.9c0.1,0.4,0.4,0.7,0.8,0.9c0,0.6-0.1,1.3-0.1,1.9c-0.5,0-1,0.1-1.4,0.1c-0.2-0.5-0.7-0.7-1.1-0.6
		c-0.4,0.1-0.7,0.5-0.7,0.9c0,0.4,0.3,0.8,0.7,0.9c0.2,0.1,0.4,0,0.6,0c0.3-0.1,0.4-0.3,0.5-0.5c0.1,0,1.4,0,1.4,0c0,0,0,0.1,0,0.1
		c0,0.7-0.1,1.3-0.1,2c0,0.5,0,1-0.1,1.5c0,0.7-0.1,1.3-0.1,2c0,0.5,0,1-0.1,1.5c0,0.7-0.1,1.4-0.1,2.1c0,0,0,0.1,0,0.1
		c-0.1,0.1-0.2,0.1-0.3,0.2c-0.2,0.1-0.4,0.2-0.6,0.2c-0.3,0-0.7,0-1,0c-0.4-0.1-0.8-0.2-1.2-0.3c-0.1,0-0.2-0.1-0.3-0.1
		c-0.4-0.2-0.8-0.4-1.2-0.7c-0.2-0.1-0.4-0.3-0.6-0.4c-0.1,0-0.1-0.1-0.2-0.1c0,0-0.1-0.1-0.1-0.1c0.1-0.1,0.3-0.1,0.4-0.2
		c0,0,0,0,0,0c-0.6-0.2-1.2-0.5-1.8-0.7c0,0,0,0,0,0c0,0,0,0,0,0c0.2,0.6,0.5,1.2,0.7,1.8c0.1-0.2,0.1-0.3,0.2-0.4c0,0,0,0,0.1,0.1
		c0.7,0.9,1.5,1.6,2.5,2.1c0.3,0.2,0.7,0.3,1,0.4c0.6,0.2,1.1,0.5,1.6,0.9c0.8,0.6,1.4,1.3,1.9,2.1c0,0,0,0,0,0.1c0,0,0,0,0,0
		c0.4-0.6,0.8-1.2,1.4-1.7c0.6-0.5,1.3-0.9,2-1.2c0.3-0.1,0.6-0.2,0.9-0.4c1.1-0.5,2-1.3,2.7-2.2c0,0,0,0,0.1-0.1
		c0.1,0.1,0.1,0.3,0.2,0.4c0.2-0.6,0.5-1.2,0.7-1.8c-0.1,0-1.8,0.7-1.9,0.7c0.1,0.1,0.3,0.1,0.4,0.2c0,0.1-0.1,0.1-0.2,0.2
		c-0.1,0.1-0.3,0.2-0.5,0.3c-0.5,0.3-1,0.5-1.5,0.8c-0.8,0.4-1.5,0.5-2.4,0.5c-0.2,0-0.3,0-0.5-0.1c-0.1,0-0.3-0.1-0.4-0.2
		c-0.1-0.1-0.1-0.1-0.1-0.2c0-0.3,0-0.6,0-0.9c0-0.3,0-0.6,0-0.8c0-0.4,0-0.8-0.1-1.1c0-0.3,0-0.6-0.1-0.9c0-0.5-0.1-0.9-0.1-1.4
		c0-0.4,0-0.8-0.1-1.1c0-0.5-0.1-1.1-0.1-1.6c0-0.4,0-0.8-0.1-1.2c0,0,0-0.1,0-0.1c0.4,0,0.8,0,1.2,0c0.2,0.5,0.7,0.7,1.1,0.6
		c0.4-0.1,0.7-0.5,0.7-0.9c0-0.4-0.3-0.8-0.7-0.9c-0.2-0.1-0.4,0-0.6,0c-0.3,0.1-0.4,0.3-0.5,0.5c-0.4-0.1-0.8-0.1-1.2-0.2
		C360.5,296,360.4,295.4,360.4,294.8z"/>
	<path class="st12" d="M360.4,294.8c0,0.6,0.1,1.2,0.1,1.9c0.4,0,0.8,0.1,1.2,0.2c0.1-0.3,0.3-0.4,0.5-0.5c0.2-0.1,0.4-0.1,0.6,0
		c0.4,0.1,0.7,0.5,0.7,0.9c0,0.4-0.3,0.8-0.7,0.9c-0.4,0.1-0.9-0.1-1.1-0.6c-0.4,0-0.8,0-1.2,0c0,0.1,0,0.1,0,0.1
		c0,0.4,0,0.8,0.1,1.2c0,0.5,0.1,1.1,0.1,1.6c0,0.4,0,0.8,0.1,1.1c0,0.5,0.1,0.9,0.1,1.4c0,0.3,0,0.6,0.1,0.9c0,0.4,0,0.8,0.1,1.1
		c0,0.3,0,0.6,0,0.8c0,0.3,0,0.6,0,0.9c0,0.1,0,0.2,0.1,0.2c0.1,0.1,0.2,0.2,0.4,0.2c0.2,0.1,0.3,0.1,0.5,0.1c0.8,0,1.6-0.1,2.4-0.5
		c0.5-0.2,1-0.5,1.5-0.8c0.2-0.1,0.3-0.2,0.5-0.3c0.1-0.1,0.1-0.1,0.2-0.2c-0.1-0.1-0.3-0.1-0.4-0.2c0,0,1.8-0.7,1.9-0.7
		c-0.2,0.6-0.5,1.2-0.7,1.8c-0.1-0.1-0.1-0.3-0.2-0.4c0,0,0,0-0.1,0.1c-0.8,0.9-1.7,1.7-2.7,2.2c-0.3,0.2-0.6,0.3-0.9,0.4
		c-0.8,0.2-1.4,0.6-2,1.2c-0.6,0.5-1,1.1-1.4,1.7c0,0,0,0,0,0c0,0,0,0,0-0.1c-0.5-0.8-1.2-1.5-1.9-2.1c-0.5-0.4-1-0.7-1.6-0.9
		c-0.4-0.1-0.7-0.2-1-0.4c-1-0.5-1.8-1.2-2.5-2.1c0,0,0,0-0.1-0.1c-0.1,0.1-0.1,0.3-0.2,0.4c-0.2-0.6-0.5-1.2-0.7-1.8c0,0,0,0,0,0
		c0,0,0,0,0,0c0.6,0.2,1.2,0.5,1.8,0.7c0,0,0,0,0,0c-0.2,0.1-0.3,0.1-0.4,0.2c0,0,0,0.1,0.1,0.1c0,0,0.1,0.1,0.2,0.1
		c0.2,0.1,0.4,0.3,0.6,0.4c0.4,0.2,0.8,0.5,1.2,0.7c0.1,0.1,0.2,0.1,0.3,0.1c0.4,0.1,0.8,0.2,1.2,0.3c0.3,0.1,0.7,0.1,1,0
		c0.2,0,0.4-0.1,0.6-0.2c0.1-0.1,0.2-0.1,0.3-0.2c0,0,0-0.1,0-0.1c0-0.7,0.1-1.4,0.1-2.1c0-0.5,0-1,0.1-1.5c0-0.7,0.1-1.3,0.1-2
		c0-0.5,0-1,0.1-1.5c0-0.7,0.1-1.3,0.1-2c0,0,0-0.1,0-0.1c-0.1,0-1.3,0-1.4,0c-0.1,0.3-0.3,0.4-0.5,0.5c-0.2,0.1-0.4,0.1-0.6,0
		c-0.4-0.1-0.7-0.5-0.7-0.9c0-0.4,0.3-0.8,0.7-0.9c0.4-0.1,0.9,0,1.1,0.6c0.5,0,1-0.1,1.4-0.1c0-0.6,0.1-1.3,0.1-1.9
		c-0.4-0.2-0.7-0.5-0.8-0.9c-0.1-0.3-0.1-0.6,0-0.9c0.2-0.6,0.8-1,1.4-1c0.6,0,1.2,0.5,1.3,1.1c0.1,0.4,0.1,0.7-0.1,1
		C361,294.5,360.7,294.7,360.4,294.8z M362.3,297.1c0,0.2,0.2,0.3,0.3,0.3c0.2,0,0.3-0.2,0.3-0.3c0-0.2-0.2-0.3-0.3-0.3
		C362.5,296.8,362.3,296.9,362.3,297.1z M357.3,297.1c0-0.2-0.1-0.3-0.3-0.3c-0.2,0-0.3,0.2-0.3,0.3c0,0.2,0.2,0.3,0.3,0.3
		C357.1,297.5,357.3,297.3,357.3,297.1z"/>
	<path class="st11" d="M360.2,294.2c0,0-0.1-0.1-0.1-0.1c-0.1-0.1-0.1-0.1-0.2-0.1c-0.1,0-0.1,0-0.2,0.1c0,0-0.1,0.1-0.1,0.1
		c0,0,0,0,0,0.1c-0.3-0.1-0.6-0.4-0.5-0.9c0.1-0.4,0.4-0.7,0.8-0.7c0.4,0,0.8,0.3,0.8,0.7C360.8,293.7,360.6,294.1,360.2,294.2z"/>
	<path class="st1" d="M362.3,297.1c0-0.2,0.2-0.3,0.3-0.3c0.2,0,0.3,0.2,0.3,0.3c0,0.2-0.2,0.3-0.3,0.3
		C362.5,297.5,362.3,297.3,362.3,297.1z"/>
	<path class="st1" d="M357.3,297.1c0,0.2-0.2,0.3-0.3,0.3c-0.2,0-0.3-0.2-0.3-0.3c0-0.2,0.2-0.3,0.3-0.3
		C357.1,296.8,357.3,296.9,357.3,297.1z"/>
</g>
</svg>
